<?xml version="1.0" encoding="utf-8"?>
<!-- Generator: Adobe Illustrator 23.0.3, SVG Export Plug-In . SVG Version: 6.00 Build 0)  -->
<svg version="1.1" id="Layer_1" xmlns="http://www.w3.org/2000/svg" xmlns:xlink="http://www.w3.org/1999/xlink" x="0px" y="0px"
	 viewBox="0 0 268.53 154.23" style="enable-background:new 0 0 268.53 154.23;" xml:space="preserve">
<style type="text/css">
	.st0{fill:url(#SVGID_1_);}
	.st1{fill:url(#SVGID_2_);}
	.st2{fill:url(#SVGID_3_);}
	.st3{fill:url(#SVGID_4_);}
	.st4{fill:url(#SVGID_5_);}
	.st5{fill:url(#SVGID_6_);}
	.st6{fill:#333333;}
	.st7{fill:#830001;}
	.st8{fill:#898989;}
	.st9{fill:url(#SVGID_7_);}
	.st10{fill:url(#SVGID_8_);}
	.st11{fill:url(#SVGID_9_);}
	.st12{fill:url(#SVGID_10_);}
	.st13{fill:url(#SVGID_11_);}
	.st14{fill:url(#SVGID_12_);}
	.st15{fill:url(#SVGID_13_);}
	.st16{fill:url(#SVGID_14_);}
	.st17{fill:url(#SVGID_15_);}
	.st18{fill:url(#SVGID_16_);}
	.st19{fill:url(#SVGID_17_);}
	.st20{fill:url(#SVGID_18_);}
	.st21{fill:url(#SVGID_19_);}
	.st22{fill:url(#SVGID_20_);}
	.st23{fill:url(#SVGID_21_);}
	.st24{fill:url(#SVGID_22_);}
	.st25{fill:url(#SVGID_23_);}
	.st26{fill:url(#SVGID_24_);}
	.st27{fill:url(#SVGID_25_);}
	.st28{fill:url(#SVGID_26_);}
</style>
<g>
	<linearGradient id="SVGID_1_" gradientUnits="userSpaceOnUse" x1="294.1543" y1="1095.4799" x2="297.6382" y2="1102.4475">
		<stop  offset="0" style="stop-color:#901B15"/>
		<stop  offset="1" style="stop-color:#830001"/>
	</linearGradient>
	<path class="st0" d="M37.84,761.18V604.55h53.61c41.77,0,62.66,14.63,62.66,43.88c0,5.03-0.85,9.47-2.55,13.29
		c-1.71,3.82-4.06,6.86-7.07,9.11c-3.01,2.25-5.57,3.9-7.66,4.92c-2.1,1.03-4.54,2.01-7.32,2.92c21.52,6,32.28,19.15,32.28,39.44
		c0,28.71-21.87,43.07-65.62,43.07H37.84z M78.2,665.78h20.75c3.75,0,7.15-1.18,10.2-3.54c3.06-2.36,4.6-5.56,4.6-9.59
		c0-5.33-1.77-9.19-5.28-11.58c-3.52-2.4-7.49-3.6-11.92-3.6H78.2V665.78z M78.2,728.27h23.05c0.31,0,0.58,0,0.81,0
		c5.27,0.08,9.78-1.27,13.52-4.04c3.9-2.93,5.85-7.32,5.85-13.16c0-5.85-2.18-10.12-6.54-12.82c-4.36-2.69-9.14-4.04-14.34-4.04
		H78.2V728.27z"/>
	<linearGradient id="SVGID_2_" gradientUnits="userSpaceOnUse" x1="404.0653" y1="1040.5243" x2="407.5492" y2="1047.4921">
		<stop  offset="0" style="stop-color:#901B15"/>
		<stop  offset="1" style="stop-color:#830001"/>
	</linearGradient>
	<path class="st1" d="M179.96,671.51v-27.52h16.05v-34.28h40.36v34.28h24.53v27.52h-24.53v56.55c0,1.75,0.71,3.24,2.13,4.46
		c1.42,1.21,3.13,1.83,5.13,1.83c4.84,0,10.6-1.94,17.27-5.82v28.69c-6.72,3.71-14.55,5.57-23.51,5.57c-13.6,0-23.9-3.57-30.9-10.72
		c-6.99-7.15-10.48-17.19-10.48-30.12v-50.43H179.96z"/>
	<linearGradient id="SVGID_3_" gradientUnits="userSpaceOnUse" x1="488.4213" y1="998.3463" x2="491.9052" y2="1005.3141">
		<stop  offset="0" style="stop-color:#901B15"/>
		<stop  offset="1" style="stop-color:#830001"/>
	</linearGradient>
	<path class="st2" d="M298.92,747.3c-9.78-10.31-14.68-25.18-14.68-44.6c0-19.41,4.9-34.28,14.68-44.6
		c9.78-10.33,23.68-15.48,41.68-15.48c18.01,0,31.9,5.15,41.68,15.48c9.78,10.32,14.68,25.18,14.68,44.6
		c0,19.42-4.9,34.29-14.68,44.6c-9.79,10.32-23.68,15.48-41.68,15.48C322.6,762.78,308.7,757.62,298.92,747.3z M340.6,671.74
		c-10.66,0-15.99,10.32-15.99,30.95c0,20.64,5.33,30.96,15.99,30.96c10.67,0,15.99-10.32,15.99-30.96
		C356.59,682.06,351.26,671.74,340.6,671.74z"/>
	<linearGradient id="SVGID_4_" gradientUnits="userSpaceOnUse" x1="662.9841" y1="911.0649" x2="666.468" y2="918.0327">
		<stop  offset="0" style="stop-color:#901B15"/>
		<stop  offset="1" style="stop-color:#830001"/>
	</linearGradient>
	<path class="st3" d="M412.03,604.55h40.36l26.85,98.84l27.88-98.84h34.89l27.88,98.84l26.85-98.84h40.37l-48.63,156.63h-36.84
		l-27.08-89.67l-27.08,89.67h-36.84L412.03,604.55z"/>
	<linearGradient id="SVGID_5_" gradientUnits="userSpaceOnUse" x1="774.0673" y1="855.5233" x2="777.5511" y2="862.4911">
		<stop  offset="0" style="stop-color:#901B15"/>
		<stop  offset="1" style="stop-color:#830001"/>
	</linearGradient>
	<path class="st4" d="M667.56,761.18V604.55h40.36v156.63H667.56z"/>
	<linearGradient id="SVGID_6_" gradientUnits="userSpaceOnUse" x1="881.5673" y1="801.7733" x2="885.0511" y2="808.7411">
		<stop  offset="0" style="stop-color:#901B15"/>
		<stop  offset="1" style="stop-color:#830001"/>
	</linearGradient>
	<path class="st5" d="M749.93,761.18V604.55h40.36l63.64,93.91v-93.91h40.36v156.63h-39.78l-64.22-93.23v93.23H749.93z"/>
</g>
<g>
	<g>
		<g>
			<g>
				<polygon class="st6" points="-2819.24,-156.63 -2819.02,-101.09 -2801.27,-101.09 -2801.49,-156.63 				"/>
				<path class="st6" d="M-2749.27-113.76c4.21,0,7.81-0.68,10.71-2.02c2.87-1.33,5.28-3.16,7.18-5.45c1.5-1.84,2.68-3.91,3.52-6.15
					c0.84-2.27,1.26-4.68,1.25-7.15c-0.01-2.84-0.59-5.63-1.73-8.28c-1.15-2.68-2.76-5.07-4.79-7.09c-2-1.98-4.43-3.57-7.24-4.7
					c-2.74-1.09-6.12-1.66-10.05-1.66h-34.38c-3.08,0-4.77,1.62-4.76,4.58l0.2,50.96h17.67l-0.05-13.04H-2749.27z M-2771.84-138.86
					h22.78c1.49,0,2.34,0.23,2.79,0.43c0.54,0.23,0.95,0.52,1.21,0.86c0.57,0.74,0.84,1.57,0.84,2.63c0,1.09-0.3,2-0.97,2.88
					c-0.43,0.58-1.02,1.06-1.76,1.4c-0.74,0.35-1.78,0.52-3.06,0.52h-21.8L-2771.84-138.86z"/>
			</g>
			<g>
				<path class="st7" d="M-2516.24-132.13c0.97-2,1.47-4.27,1.45-6.74c-0.01-2.43-0.43-4.65-1.26-6.61
					c-0.83-1.96-1.96-3.72-3.34-5.22c-3.53-3.81-8.41-5.74-14.51-5.74h-37.07c-3.13,0-4.85,1.62-4.83,4.57l0.18,45.37
					c0.01,2.07,0.88,3.35,1.61,4.05c0.74,0.7,2.07,1.55,4.25,1.55h37.84c3.28,0,6.09-0.51,8.34-1.51c2.24-1,4.11-2.38,5.54-4.1
					c1.21-1.43,2.16-3.05,2.84-4.8c0.7-1.8,1.04-3.73,1.04-5.75c-0.01-2.66-0.57-5.19-1.65-7.51c-0.6-1.29-1.4-2.45-2.35-3.44
					l-0.61-0.63l0.45-0.49C-2517.48-130.01-2516.79-131.02-2516.24-132.13z M-2532.75-121.14c0.14,0.27,0.2,0.55,0.21,0.89
					c0,0.72-0.24,1.39-0.73,1.99c-0.31,0.34-0.69,0.61-1.15,0.81c-0.45,0.2-1.07,0.3-1.86,0.3h-21.72l-0.02-5.1h22.7
					c0.88,0,1.35,0.11,1.56,0.18l0.29,0.13l-0.23,0.66l0.59-0.39c0.08,0.09,0.15,0.18,0.21,0.27l0.16,0.2L-2532.75-121.14z
					 M-2532.92-137.98c0,0.6-0.2,1.13-0.63,1.68c-0.29,0.37-0.64,0.65-1.05,0.85c-0.38,0.18-0.94,0.27-1.67,0.27h-21.79l-0.02-4.57
					h22.78c0.42,0,0.79,0.04,1.08,0.1h0.11l0.21,0.09c0.18,0.09,0.32,0.18,0.45,0.28l0.28,0.32
					C-2533-138.67-2532.92-138.35-2532.92-137.98z"/>
				<polygon class="st7" points="-2508.08,-156.44 -2507.86,-100.9 -2490.11,-100.9 -2490.33,-156.44 				"/>
				<path class="st7" d="M-2421.19-117.83h-9.77h-24.7l25.26-18.88c1.27-0.94,2.15-1.72,2.71-2.39c0.55-0.68,0.99-1.38,1.27-2.09
					c0.64-1.46,0.96-2.97,0.95-4.5c0-1.2-0.27-2.45-0.78-3.68c-0.52-1.27-1.29-2.45-2.27-3.49c-1.02-1.08-2.3-1.97-3.81-2.62
					c-1.48-0.64-3.28-0.95-5.54-0.95h-46.14l0.07,17.39h30.55l-24.49,17.25c-1.05,0.74-1.82,1.3-2.33,1.67
					c-0.58,0.44-1.09,0.91-1.51,1.4c-0.84,1.01-1.48,2.1-1.88,3.19c-0.41,1.13-0.62,2.25-0.6,3.35c0,2.47,0.82,4.78,2.4,6.86
					c1.04,1.37,2.4,2.47,4.07,3.27c1.61,0.77,3.55,1.15,5.93,1.15h45.51h8.62h40.04l-4.64-16.93H-2421.19z"/>
			</g>
		</g>
		<path class="st7" d="M-2573.17-194.22h94.68c36.15,0,65.55,29.41,65.55,65.55s-29.4,65.55-65.55,65.55h-113.72
			c-36.14,0-65.55-29.41-65.55-65.55c0-12.24-9.92-22.17-22.17-22.17c-12.24,0-22.17,9.93-22.17,22.17
			c0,60.59,49.3,109.9,109.9,109.9h113.72c60.6,0,109.9-49.3,109.9-109.9c0-60.59-49.3-109.9-109.9-109.9h-135.65
			C-2596.17-227.59-2583.93-212.33-2573.17-194.22z"/>
		<path class="st6" d="M-2713.92-63.13h-86.03c-36.14,0-65.54-29.41-65.54-65.55c0-36.15,29.4-65.55,65.54-65.55h105.06
			c36.14,0,65.55,29.4,65.55,65.55c0,12.24,9.93,22.17,22.17,22.17c12.25,0,22.17-9.93,22.17-22.17c0-60.59-49.3-109.9-109.9-109.9
			h-105.06c-60.59,0-109.89,49.3-109.89,109.9c0,60.59,49.3,109.9,109.89,109.9h126.99C-2690.92-29.76-2703.16-45.02-2713.92-63.13z
			"/>
	</g>
	<g>
		<g>
			<path class="st8" d="M-2214.18-228.75h4.96v31.53h-4.96V-228.75z"/>
			<path class="st8" d="M-2198.8-228.75h9.55c7.03,0,12.04,2.4,12.04,9.51c0,6.89-5.01,10.07-11.87,10.07h-4.76v11.95h-4.97V-228.75
				z M-2189.55-213.16c5.05,0,7.45-1.92,7.45-6.08c0-4.16-2.61-5.53-7.62-5.53h-4.12v11.61H-2189.55z"/>
			<path class="st8" d="M-2157.21-205.87c3.3-0.13,6.6-0.39,9.68-0.82l0.39,3.26c-8.1,1.41-16.97,1.45-23.61,1.45l-0.6-3.64
				c2.91,0,6.25,0,9.72-0.09v-6.08c-4.79-0.86-8.18-4.37-8.18-9.12c0-5.49,4.41-9.3,10.37-9.3c5.95,0,10.32,3.81,10.32,9.3
				c0,4.75-3.3,8.22-8.09,9.08V-205.87z M-2159.44-215.43c3.51,0,6.04-2.1,6.04-5.48c0-3.39-2.53-5.53-6.04-5.53
				s-6.08,2.15-6.08,5.53C-2165.52-217.53-2162.95-215.43-2159.44-215.43z M-2135.15-213.33h-5.7v19.37h-4.42v-38.65h4.42v15.59h5.7
				V-213.33z"/>
			<path class="st8" d="M-2115.62-228.75h9.77c6.47,0,11.13,2.06,11.13,7.75c0,3-1.66,5.87-4.5,6.82v0.21
				c3.6,0.77,6.21,3.21,6.21,7.5c0,6.25-5.1,9.25-12.08,9.25h-10.54V-228.75z M-2106.41-215.6c4.8,0,6.81-1.8,6.81-4.76
				c0-3.3-2.23-4.54-6.68-4.54h-4.38v9.3H-2106.41z M-2105.64-201.12c4.93,0,7.75-1.75,7.75-5.61c0-3.56-2.74-5.1-7.75-5.1h-5.02
				v10.71H-2105.64z"/>
			<path class="st8" d="M-2084.91-228.75h4.97v31.53h-4.97V-228.75z"/>
			<path class="st8" d="M-2071.68-200.22l15.81-24.38h-14.35v-4.16h20.47v2.95l-15.76,24.38h15.94v4.2h-22.11V-200.22z"/>
			<path class="st8" d="M-2029.82-223.05c0,6.9,3.6,13.88,9.43,16.75l-2.7,3.51c-4.15-2.14-7.24-6.33-8.91-11.39
				c-1.67,5.36-4.93,9.85-9.34,12.13l-2.7-3.56c6.04-2.96,9.81-10.28,9.81-17.44v-6.34h4.41V-223.05z M-2007.37-213.63h-6.04v19.71
				h-4.41v-38.69h4.41v15.34h6.04V-213.63z"/>
			<path class="st8" d="M-1980.6-216.16c0,8.4-4.2,13.67-9.98,13.67c-5.74,0-9.94-5.27-9.94-13.67c0-8.31,4.2-13.63,9.94-13.63
				C-1984.8-229.78-1980.6-224.47-1980.6-216.16z M-1996.28-216.16c0,6.08,2.36,9.73,5.7,9.73c3.39,0,5.74-3.65,5.74-9.73
				c0-6-2.36-9.64-5.74-9.64C-1993.93-225.8-1996.28-222.16-1996.28-216.16z M-1969.98-232.65v38.82h-4.46v-38.82H-1969.98z"/>
			<path class="st8" d="M-1948.65-211.15h11.31v3.64h-11.31V-211.15z"/>
			<path class="st8" d="M-1912.84-229.44v9.85h9.81v-9.85h4.41v26.39h-18.59v-26.39H-1912.84z M-1912.84-206.61h9.81v-9.47h-9.81
				V-206.61z M-1887.44-232.65v38.82h-4.46v-38.82H-1887.44z"/>
			<path class="st8" d="M-1842.72-205.79h-15.34v11.96h-4.41v-11.96h-15.34v-3.59h35.09V-205.79z M-1846.49-212.86h-26.78v-18.08
				h26.35v3.51h-21.93v3.73h21.04v3.42h-21.04v3.9h22.36V-212.86z"/>
			<path class="st8" d="M-1825.11-210.67c-3.73,0.13-7.29,0.18-10.41,0.18l-0.56-3.6c7.11,0,16.62-0.05,24.8-1.16l0.3,3.13
				c-3.22,0.6-6.47,0.98-9.72,1.15v6.51h-4.41V-210.67z M-1833.3-223.87c0-4.37,3.99-7.2,9.81-7.2c5.78,0,9.77,2.83,9.77,7.2
				c0,4.42-3.98,7.28-9.77,7.28C-1829.31-216.59-1833.3-219.45-1833.3-223.87z M-1803.4-198.25v3.6h-27.59v-11.14h4.41v7.54H-1803.4
				z M-1829.1-223.87c0,2.44,2.23,3.94,5.61,3.94c3.34,0,5.61-1.5,5.61-3.94c0-2.4-2.27-3.89-5.61-3.89
				C-1826.88-227.77-1829.1-226.27-1829.1-223.87z M-1804.38-203.22h-4.46v-29.38h4.46V-203.22z"/>
			<path class="st8" d="M-1762.36-207.33c1.8-0.17,3.6-0.34,5.31-0.56l0.26,3.25c-8.01,1.33-16.97,1.46-23.7,1.46l-0.47-3.64
				c1.45,0,3.08,0,4.76,0v-18.34h-3.77v-3.56h21.38v3.56h-3.77V-207.33z M-1771.92-206.91c1.71-0.04,3.51-0.13,5.27-0.22v-18.03
				h-5.27V-206.91z M-1744.5-213.84h-6.04v19.96h-4.42v-38.72h4.42v15.13h6.04V-213.84z"/>
			<path class="st8" d="M-1703.85-202.28v3.6h-35.09v-3.6H-1703.85z M-1707.79-208.62h-26.82v-20.86h26.52v3.55h-22.03v4.97h21.17
				v3.47h-21.17v5.31h22.32V-208.62z"/>
			<path class="st8" d="M-1690.96-206.78c5.35-0.04,10.54-0.47,15.98-1.54l0.51,3.64c-6.16,1.2-11.82,1.58-17.78,1.58h-3.09v-25.27
				h4.38V-206.78z M-1665.25-232.61v38.77h-4.41v-22.75h-11.23v-3.59h11.23v-12.42H-1665.25z"/>
			<path class="st8" d="M-1620.79-202.54v3.64h-35.05v-3.64H-1620.79z M-1624.22-210.08c-6.29-1.28-11.74-5.31-14.26-10.62
				c-2.53,5.31-7.97,9.34-14.27,10.62l-1.88-3.64c7.63-1.42,13.84-7.37,13.84-13.5v-2.91h4.67v2.91c0,6.17,6.21,12.13,13.84,13.5
				L-1624.22-210.08z"/>
		</g>
		<g>
			<path class="st7" d="M-2321.36-26l0-128.12l43.85,0c34.17,0,51.25,11.96,51.25,35.89c0,4.12-0.7,7.75-2.09,10.87
				c-1.4,3.13-3.32,5.61-5.78,7.45c-2.46,1.84-4.56,3.19-6.27,4.03c-1.72,0.85-3.71,1.64-5.98,2.39c17.6,4.91,26.4,15.66,26.4,32.26
				c0,23.48-17.89,35.23-53.67,35.23L-2321.36-26z M-2288.34-104.04l16.97,0c3.06,0,5.85-0.97,8.35-2.9
				c2.5-1.93,3.76-4.55,3.76-7.85c0-4.36-1.45-7.52-4.32-9.48c-2.88-1.97-6.13-2.95-9.75-2.95l-15.01,0L-2288.34-104.04z
				 M-2288.34-52.92l18.85,0c0.25,0,0.47,0,0.66,0c4.31,0.06,8-1.04,11.06-3.3c3.19-2.39,4.79-5.99,4.79-10.77
				c0-4.78-1.78-8.27-5.35-10.48c-3.57-2.2-7.47-3.3-11.73-3.3l-18.29,0V-52.92z"/>
			<path class="st7" d="M-2205.1-99.35v-22.51l13.13,0v-28.04l33.02,0v28.04l20.06,0v22.51l-20.06,0v46.26
				c0,1.43,0.58,2.65,1.74,3.65c1.16,0.99,2.56,1.49,4.2,1.49c3.96,0,8.67-1.59,14.13-4.76v23.47c-5.5,3.04-11.9,4.56-19.23,4.56
				c-11.12,0-19.55-2.92-25.27-8.77c-5.71-5.85-8.58-14.06-8.58-24.64v-41.25L-2205.1-99.35z"/>
			<path class="st7" d="M-2107.8-37.36c-8-8.44-12.01-20.6-12.01-36.48c0-15.88,4.01-28.04,12.01-36.48
				c8-8.45,19.37-12.66,34.09-12.66c14.73,0,26.09,4.21,34.1,12.66c8,8.44,12.01,20.6,12.01,36.48c0,15.89-4.01,28.05-12.01,36.48
				c-8.01,8.44-19.37,12.67-34.1,12.67C-2088.43-24.69-2099.79-28.92-2107.8-37.36z M-2073.71-99.16c-8.72,0-13.08,8.44-13.08,25.32
				c0,16.88,4.36,25.32,13.08,25.32c8.73,0,13.08-8.44,13.08-25.32C-2060.63-90.72-2064.98-99.16-2073.71-99.16z"/>
			<path class="st7" d="M-2015.27-154.13l33.01,0l21.96,80.85l22.81-80.85l28.54,0l22.81,80.85l21.96-80.85l33.02,0l-39.77,128.12
				l-30.13,0l-22.15-73.35l-22.15,73.35l-30.13,0L-2015.27-154.13z"/>
			<path class="st7" d="M-1806.26-26.01l0-128.12l33.01,0l0,128.12L-1806.26-26.01z"/>
			<path class="st7" d="M-1738.88-26.01l0-128.12l33.02,0l52.05,76.82l0-76.82l33.01,0l0,128.12l-32.54,0l-52.53-76.26l0,76.26
				L-1738.88-26.01z"/>
		</g>
	</g>
</g>
<g>
	<g>
		<g>
			<polygon class="st6" points="-2490.74,361.71 -2490.48,429.61 -2468.78,429.61 -2469.05,361.71 			"/>
			<path class="st6" d="M-2405.2,414.11c5.16,0,9.55-0.83,13.09-2.47c3.5-1.62,6.45-3.86,8.79-6.66c1.83-2.24,3.28-4.77,4.29-7.52
				c1.03-2.78,1.53-5.72,1.53-8.74c-0.01-3.47-0.72-6.88-2.11-10.13c-1.41-3.27-3.38-6.19-5.86-8.66c-2.44-2.43-5.42-4.36-8.85-5.74
				c-3.35-1.34-7.48-2.02-12.27-2.02h-42.04c-3.77,0-5.83,1.98-5.82,5.59l0.24,62.29h21.61l-0.07-15.95H-2405.2z M-2432.8,383.43
				h27.86c1.81,0,2.86,0.28,3.41,0.52c0.66,0.29,1.15,0.64,1.48,1.05c0.7,0.91,1.03,1.92,1.03,3.22c0,1.32-0.37,2.44-1.19,3.52
				c-0.52,0.72-1.25,1.3-2.15,1.71c-0.91,0.42-2.17,0.64-3.75,0.64h-26.65L-2432.8,383.43z"/>
		</g>
		<g>
			<path class="st7" d="M-2120.32,391.66c1.2-2.45,1.79-5.21,1.78-8.24c-0.01-2.97-0.52-5.69-1.53-8.08
				c-1.02-2.41-2.4-4.55-4.08-6.38c-4.31-4.66-10.28-7.01-17.74-7.01h-45.33c-3.83,0-5.92,1.99-5.91,5.59l0.22,55.46
				c0.01,2.54,1.08,4.1,1.98,4.96c0.89,0.86,2.53,1.89,5.19,1.89h46.26c4.02,0,7.45-0.62,10.21-1.84c2.73-1.22,5.01-2.91,6.76-5.01
				c1.48-1.75,2.64-3.72,3.48-5.87c0.85-2.2,1.27-4.56,1.26-7.03c-0.01-3.26-0.69-6.34-2.01-9.17c-0.74-1.58-1.71-3-2.87-4.2
				l-0.74-0.77l0.55-0.6C-2121.83,394.26-2120.99,393.02-2120.32,391.66z M-2140.49,405.1c0.17,0.34,0.24,0.68,0.25,1.09
				c0,0.89-0.3,1.7-0.89,2.43c-0.37,0.42-0.84,0.75-1.41,1c-0.54,0.24-1.31,0.36-2.26,0.36h-26.55l-0.03-6.24h27.76
				c1.08,0,1.65,0.14,1.89,0.23l0.36,0.16l-0.28,0.81l0.72-0.47c0.1,0.11,0.18,0.22,0.26,0.33l0.2,0.25L-2140.49,405.1z
				 M-2140.7,384.51c0,0.74-0.24,1.39-0.77,2.05c-0.36,0.44-0.79,0.79-1.3,1.03c-0.46,0.22-1.14,0.34-2.03,0.34h-26.64l-0.03-5.58
				h27.85c0.51,0,0.97,0.05,1.31,0.12h0.14l0.25,0.12c0.22,0.11,0.4,0.21,0.55,0.35l0.34,0.39
				C-2140.81,383.67-2140.71,384.06-2140.7,384.51z"/>
			<polygon class="st7" points="-2110.34,361.94 -2110.07,429.84 -2088.37,429.84 -2088.64,361.94 			"/>
			<path class="st7" d="M-2004.11,409.15h-11.94h-30.21l30.88-23.09c1.56-1.15,2.64-2.11,3.32-2.92c0.67-0.83,1.2-1.69,1.56-2.56
				c0.78-1.78,1.17-3.63,1.16-5.5c-0.01-1.47-0.33-2.99-0.95-4.5c-0.65-1.55-1.58-2.99-2.78-4.26c-1.25-1.33-2.81-2.4-4.66-3.2
				c-1.81-0.79-4.02-1.17-6.77-1.17h-56.41l0.08,21.26h37.34l-29.94,21.09c-1.29,0.91-2.23,1.59-2.85,2.05
				c-0.7,0.54-1.33,1.11-1.85,1.71c-1.03,1.24-1.81,2.56-2.3,3.91c-0.51,1.38-0.76,2.76-0.75,4.09c0.01,3.02,1,5.85,2.93,8.39
				c1.27,1.69,2.93,3.03,4.98,4c1.97,0.95,4.34,1.4,7.25,1.4h55.64h10.53h48.96l-5.68-20.69H-2004.11z"/>
		</g>
	</g>
	<path class="st7" d="M-2189.92,315.76h115.76c44.18,0,80.13,35.95,80.13,80.13c0,44.19-35.95,80.14-80.13,80.14h-139.03
		c-44.19,0-80.13-35.95-80.13-80.14c0-14.97-12.14-27.1-27.11-27.1c-14.98,0-27.11,12.14-27.11,27.1
		c0,74.08,60.27,134.35,134.36,134.35h139.03c74.07,0,134.34-60.27,134.34-134.35c0-74.08-60.26-134.35-134.34-134.35H-2240
		C-2218.04,274.97-2203.08,293.62-2189.92,315.76z"/>
	<path class="st6" d="M-2361.98,476.03h-105.17c-44.19,0-80.13-35.95-80.13-80.14c0-44.19,35.94-80.13,80.13-80.13h128.44
		c44.19,0,80.13,35.95,80.13,80.13c0,14.97,12.13,27.11,27.11,27.11c14.97,0,27.11-12.14,27.11-27.11
		c0-74.08-60.27-134.35-134.35-134.35h-128.44c-74.08,0-134.35,60.27-134.35,134.35c0,74.08,60.27,134.35,134.35,134.35h155.24
		C-2333.86,516.81-2348.83,498.16-2361.98,476.03z"/>
</g>
<g>
	<path class="st8" d="M-2633.38,817.24h6.07v38.55h-6.07V817.24z"/>
	<path class="st8" d="M-2614.57,817.24h11.68c8.59,0,14.72,2.93,14.72,11.63c0,8.43-6.13,12.31-14.52,12.31h-5.81v14.61h-6.07
		V817.24z M-2603.26,836.3c6.18,0,9.11-2.35,9.11-7.43c0-5.09-3.2-6.76-9.32-6.76h-5.03v14.19H-2603.26z"/>
	<path class="st8" d="M-2563.72,845.21c4.03-0.15,8.06-0.47,11.83-1l0.47,3.98c-9.91,1.73-20.75,1.78-28.87,1.78l-0.72-4.45
		c3.56,0,7.64,0,11.88-0.1v-7.44c-5.86-1.05-10-5.34-10-11.16c0-6.7,5.39-11.37,12.68-11.37c7.27,0,12.62,4.66,12.62,11.37
		c0,5.82-4.04,10.05-9.9,11.1V845.21z M-2566.45,833.53c4.29,0,7.38-2.57,7.38-6.7c0-4.14-3.08-6.76-7.38-6.76
		c-4.3,0-7.44,2.62-7.44,6.76C-2573.88,830.96-2570.74,833.53-2566.45,833.53z M-2536.75,836.1h-6.97v23.68h-5.4v-47.25h5.4v19.06
		h6.97V836.1z"/>
	<path class="st8" d="M-2512.88,817.24h11.95c7.9,0,13.61,2.52,13.61,9.48c0,3.67-2.05,7.18-5.5,8.33v0.26
		c4.4,0.94,7.59,3.93,7.59,9.17c0,7.64-6.24,11.32-14.77,11.32h-12.88V817.24z M-2501.63,833.32c5.87,0,8.33-2.2,8.33-5.81
		c0-4.03-2.72-5.55-8.17-5.55h-5.35v11.36H-2501.63z M-2500.68,851.03c6.03,0,9.48-2.15,9.48-6.86c0-4.35-3.35-6.24-9.48-6.24h-6.13
		v13.09H-2500.68z"/>
	<path class="st8" d="M-2475.34,817.24h6.08v38.55h-6.08V817.24z"/>
	<path class="st8" d="M-2459.16,852.12l19.33-29.8h-17.54v-5.09h25.03v3.61l-19.27,29.8h19.48v5.14h-27.03V852.12z"/>
	<path class="st8" d="M-2407.99,824.21c0,8.43,4.4,16.97,11.52,20.47l-3.3,4.3c-5.08-2.62-8.86-7.75-10.9-13.93
		c-2.04,6.55-6.02,12.04-11.42,14.82l-3.29-4.35c7.38-3.61,11.99-12.57,11.99-21.31v-7.75h5.39V824.21z M-2380.55,835.73h-7.38
		v24.09h-5.39v-47.29h5.39v18.76h7.38V835.73z"/>
	<path class="st8" d="M-2347.82,832.64c0,10.26-5.13,16.7-12.21,16.7c-7.01,0-12.14-6.44-12.14-16.7c0-10.16,5.13-16.66,12.14-16.66
		C-2352.95,815.98-2347.82,822.48-2347.82,832.64z M-2366.98,832.64c0,7.43,2.88,11.88,6.96,11.88c4.14,0,7.02-4.45,7.02-11.88
		c0-7.34-2.88-11.79-7.02-11.79C-2364.11,820.86-2366.98,825.31-2366.98,832.64z M-2334.83,812.48v47.45h-5.45v-47.45H-2334.83z"/>
	<path class="st8" d="M-2308.76,838.77h13.83v4.45h-13.83V838.77z"/>
	<path class="st8" d="M-2264.98,816.4v12.05h12V816.4h5.4v32.26h-22.74V816.4H-2264.98z M-2264.98,844.32h12v-11.57h-12V844.32z
		 M-2233.92,812.48v47.45h-5.44v-47.45H-2233.92z"/>
	<path class="st8" d="M-2179.25,845.32h-18.76v14.61h-5.38v-14.61h-18.75v-4.39h42.89V845.32z M-2183.86,836.67h-32.74v-22.1h32.21
		v4.3h-26.81v4.55h25.72v4.19h-25.72v4.76h27.34V836.67z"/>
	<path class="st8" d="M-2157.73,839.35c-4.56,0.15-8.9,0.21-12.73,0.21l-0.68-4.4c8.7,0,20.32-0.05,30.33-1.41l0.36,3.83
		c-3.93,0.73-7.91,1.2-11.89,1.41v7.96h-5.39V839.35z M-2167.73,823.22c0-5.35,4.87-8.8,11.99-8.8c7.07,0,11.94,3.46,11.94,8.8
		c0,5.39-4.87,8.9-11.94,8.9C-2162.86,832.12-2167.73,828.61-2167.73,823.22z M-2131.18,854.54v4.4h-33.73v-13.62h5.4v9.22H-2131.18
		z M-2162.6,823.22c0,2.99,2.72,4.82,6.86,4.82c4.08,0,6.86-1.83,6.86-4.82c0-2.94-2.78-4.76-6.86-4.76
		C-2159.88,818.45-2162.6,820.28-2162.6,823.22z M-2132.38,848.46h-5.45v-35.93h5.45V848.46z"/>
	<path class="st8" d="M-2081.01,843.43c2.19-0.21,4.4-0.42,6.49-0.68l0.32,3.99c-9.8,1.63-20.74,1.78-28.96,1.78l-0.58-4.45
		c1.78,0,3.77,0,5.82,0v-22.42h-4.61v-4.35h26.13v4.35h-4.6V843.43z M-2092.69,843.95c2.09-0.05,4.29-0.16,6.44-0.26v-22.05h-6.44
		V843.95z M-2059.18,835.47h-7.38v24.4h-5.39v-47.34h5.39v18.49h7.38V835.47z"/>
	<path class="st8" d="M-2009.48,849.62v4.39h-42.89v-4.39H-2009.48z M-2014.3,841.86h-32.79v-25.5h32.42v4.34h-26.93v6.08h25.88
		v4.24h-25.88v6.49h27.29V841.86z"/>
	<path class="st8" d="M-1993.72,844.12c6.55-0.05,12.88-0.58,19.54-1.89l0.62,4.46c-7.54,1.46-14.45,1.93-21.73,1.93h-3.78v-30.9
		h5.35V844.12z M-1962.29,812.53v47.4h-5.4v-27.81h-13.72v-4.4h13.72v-15.19H-1962.29z"/>
	<path class="st8" d="M-1907.94,849.29v4.46h-42.83v-4.46H-1907.94z M-1912.13,840.08c-7.7-1.57-14.35-6.5-17.44-12.99
		c-3.09,6.49-9.74,11.42-17.45,12.99l-2.3-4.45c9.32-1.73,16.92-9.01,16.92-16.5v-3.56h5.71v3.56c0,7.54,7.59,14.83,16.92,16.5
		L-1912.13,840.08z"/>
</g>
<g>
	<path class="st7" d="M-2698.89,752.66V596.03h53.61c41.77,0,62.66,14.63,62.66,43.88c0,5.03-0.85,9.47-2.55,13.29
		c-1.71,3.82-4.06,6.86-7.07,9.11c-3.01,2.25-5.57,3.9-7.66,4.92c-2.1,1.03-4.54,2.01-7.32,2.92c21.52,6,32.28,19.15,32.28,39.44
		c0,28.71-21.87,43.07-65.62,43.07H-2698.89z M-2658.53,657.27h20.75c3.75,0,7.15-1.18,10.2-3.54c3.06-2.36,4.6-5.56,4.6-9.59
		c0-5.33-1.77-9.19-5.28-11.58c-3.52-2.4-7.49-3.6-11.92-3.6h-18.35V657.27z M-2658.53,719.75h23.05c0.31,0,0.58,0,0.81,0
		c5.27,0.08,9.78-1.27,13.52-4.04c3.9-2.93,5.85-7.32,5.85-13.16c0-5.85-2.18-10.12-6.54-12.82c-4.36-2.69-9.14-4.04-14.34-4.04
		h-22.36V719.75z"/>
	<path class="st7" d="M-2556.76,662.99v-27.52h16.05v-34.28h40.36v34.28h24.53v27.52h-24.53v56.55c0,1.75,0.71,3.24,2.13,4.46
		c1.42,1.21,3.13,1.83,5.13,1.83c4.84,0,10.6-1.94,17.27-5.82v28.69c-6.72,3.71-14.55,5.57-23.51,5.57c-13.6,0-23.9-3.57-30.9-10.72
		c-6.99-7.15-10.48-17.19-10.48-30.12v-50.43H-2556.76z"/>
	<path class="st7" d="M-2437.8,738.78c-9.78-10.31-14.68-25.18-14.68-44.6c0-19.41,4.9-34.28,14.68-44.6
		c9.78-10.33,23.68-15.48,41.68-15.48c18.01,0,31.9,5.15,41.68,15.48c9.78,10.32,14.68,25.18,14.68,44.6
		c0,19.42-4.9,34.29-14.68,44.6c-9.79,10.32-23.68,15.48-41.68,15.48C-2414.12,754.27-2428.02,749.11-2437.8,738.78z
		 M-2396.13,663.23c-10.66,0-15.99,10.32-15.99,30.95c0,20.64,5.33,30.96,15.99,30.96c10.67,0,15.99-10.32,15.99-30.96
		C-2380.14,673.55-2385.46,663.23-2396.13,663.23z"/>
	<path class="st7" d="M-2324.69,596.03h40.36l26.85,98.84l27.88-98.84h34.89l27.88,98.84l26.85-98.84h40.37l-48.63,156.63h-36.84
		l-27.08-89.67l-27.08,89.67h-36.84L-2324.69,596.03z"/>
	<path class="st7" d="M-2069.17,752.66V596.03h40.36v156.63H-2069.17z"/>
	<path class="st7" d="M-1986.79,752.66V596.03h40.36l63.64,93.91v-93.91h40.36v156.63h-39.78l-64.22-93.23v93.23H-1986.79z"/>
</g>
<g>
	<linearGradient id="SVGID_7_" gradientUnits="userSpaceOnUse" x1="435.724" y1="588.7373" x2="123.3369" y2="268.2212">
		<stop  offset="0" style="stop-color:#404040"/>
		<stop  offset="0.5838" style="stop-color:#333333"/>
	</linearGradient>
	<polygon class="st9" points="245.65,371.03 245.91,438.92 267.61,438.92 267.34,371.03 	"/>
	<linearGradient id="SVGID_8_" gradientUnits="userSpaceOnUse" x1="464.2833" y1="560.9023" x2="151.8962" y2="240.3862">
		<stop  offset="0" style="stop-color:#404040"/>
		<stop  offset="0.5838" style="stop-color:#333333"/>
	</linearGradient>
	<path class="st10" d="M331.19,423.43c5.16,0,9.55-0.83,13.09-2.47c3.5-1.62,6.45-3.86,8.79-6.66c1.83-2.24,3.28-4.77,4.29-7.52
		c1.03-2.78,1.53-5.72,1.53-8.74c-0.01-3.47-0.72-6.88-2.11-10.13c-1.41-3.27-3.38-6.19-5.86-8.66c-2.44-2.43-5.42-4.36-8.85-5.74
		c-3.35-1.34-7.48-2.02-12.27-2.02h-42.04c-3.77,0-5.83,1.98-5.82,5.59l0.24,62.29h21.61l-0.07-15.95H331.19z M303.59,392.75h27.86
		c1.81,0,2.86,0.28,3.41,0.52c0.66,0.29,1.15,0.64,1.48,1.05c0.7,0.91,1.03,1.92,1.03,3.22c0,1.32-0.37,2.44-1.19,3.52
		c-0.52,0.72-1.25,1.3-2.15,1.71c-0.91,0.42-2.17,0.64-3.75,0.64h-26.65L303.59,392.75z"/>
</g>
<g>
	<linearGradient id="SVGID_9_" gradientUnits="userSpaceOnUse" x1="543.252" y1="405.2077" x2="618.6066" y2="405.2077">
		<stop  offset="0" style="stop-color:#FFFFFF"/>
		<stop  offset="0" style="stop-color:#9B3A3B"/>
		<stop  offset="1" style="stop-color:#830001"/>
	</linearGradient>
	<path class="st11" d="M616.06,400.98c1.2-2.45,1.79-5.21,1.78-8.24c-0.01-2.97-0.52-5.69-1.53-8.08c-1.02-2.41-2.4-4.55-4.08-6.38
		c-4.31-4.66-10.28-7.01-17.74-7.01h-45.33c-3.83,0-5.92,1.99-5.91,5.59l0.22,55.46c0.01,2.54,1.08,4.1,1.98,4.96
		c0.89,0.86,2.53,1.89,5.19,1.89h46.26c4.02,0,7.45-0.62,10.21-1.84c2.73-1.22,5.01-2.91,6.76-5.01c1.48-1.75,2.64-3.72,3.48-5.87
		c0.85-2.2,1.27-4.56,1.26-7.03c-0.01-3.26-0.69-6.34-2.01-9.17c-0.74-1.58-1.71-3-2.87-4.2l-0.74-0.77l0.55-0.6
		C614.55,403.57,615.4,402.34,616.06,400.98z M595.89,414.42c0.17,0.34,0.24,0.68,0.25,1.09c0,0.89-0.3,1.7-0.89,2.43
		c-0.37,0.42-0.84,0.75-1.41,1c-0.54,0.24-1.31,0.36-2.26,0.36h-26.55l-0.03-6.24h27.76c1.08,0,1.65,0.14,1.89,0.23l0.36,0.16
		l-0.28,0.81l0.72-0.47c0.1,0.11,0.18,0.22,0.26,0.33l0.2,0.25L595.89,414.42z M595.68,393.83c0,0.74-0.24,1.39-0.77,2.05
		c-0.36,0.44-0.79,0.79-1.3,1.03c-0.46,0.22-1.14,0.33-2.03,0.33h-26.64l-0.03-5.58h27.85c0.51,0,0.97,0.05,1.31,0.12h0.14
		l0.25,0.12c0.22,0.11,0.4,0.21,0.55,0.35l0.34,0.39C595.58,392.99,595.68,393.38,595.68,393.83z"/>
	<linearGradient id="SVGID_10_" gradientUnits="userSpaceOnUse" x1="626.043" y1="405.2077" x2="648.0117" y2="405.2077">
		<stop  offset="0" style="stop-color:#FFFFFF"/>
		<stop  offset="0" style="stop-color:#9B3A3B"/>
		<stop  offset="1" style="stop-color:#830001"/>
	</linearGradient>
	<polygon class="st12" points="626.04,371.26 626.32,439.15 648.01,439.15 647.75,371.26 	"/>
	<linearGradient id="SVGID_11_" gradientUnits="userSpaceOnUse" x1="655.2031" y1="405.2077" x2="785.4932" y2="405.2077">
		<stop  offset="0" style="stop-color:#FFFFFF"/>
		<stop  offset="0" style="stop-color:#9B3A3B"/>
		<stop  offset="1" style="stop-color:#830001"/>
	</linearGradient>
	<path class="st13" d="M732.28,418.46h-11.94h-30.21L721,395.37c1.56-1.15,2.64-2.11,3.32-2.92c0.67-0.83,1.2-1.69,1.56-2.56
		c0.78-1.78,1.17-3.63,1.16-5.5c-0.01-1.47-0.33-2.99-0.95-4.5c-0.65-1.55-1.58-2.99-2.78-4.26c-1.25-1.33-2.81-2.4-4.66-3.2
		c-1.81-0.79-4.02-1.17-6.77-1.17h-56.41l0.08,21.26h37.34l-29.94,21.09c-1.29,0.91-2.23,1.58-2.85,2.05
		c-0.7,0.54-1.33,1.11-1.85,1.71c-1.03,1.24-1.81,2.56-2.3,3.91c-0.51,1.38-0.76,2.76-0.75,4.09c0.01,3.02,1,5.85,2.93,8.39
		c1.27,1.69,2.93,3.03,4.98,4c1.97,0.95,4.34,1.4,7.25,1.4h55.64h10.53h48.96l-5.68-20.69H732.28z"/>
</g>
<linearGradient id="SVGID_12_" gradientUnits="userSpaceOnUse" x1="388.8408" y1="405.205" x2="796.5615" y2="405.205">
	<stop  offset="0" style="stop-color:#FFFFFF"/>
	<stop  offset="0" style="stop-color:#9B3A3B"/>
	<stop  offset="1" style="stop-color:#830001"/>
</linearGradient>
<path class="st14" d="M546.47,325.08h115.76c44.18,0,80.13,35.95,80.13,80.13c0,44.19-35.95,80.14-80.13,80.14H523.2
	c-44.19,0-80.13-35.95-80.13-80.14c0-14.97-12.14-27.1-27.11-27.1c-14.98,0-27.11,12.14-27.11,27.1
	c0,74.08,60.27,134.35,134.36,134.35h139.03c74.07,0,134.34-60.27,134.34-134.35c0-74.08-60.26-134.35-134.34-134.35H496.39
	C518.34,284.28,533.31,302.94,546.47,325.08z"/>
<linearGradient id="SVGID_13_" gradientUnits="userSpaceOnUse" x1="446.5185" y1="481.4716" x2="54.0024" y2="216.6975">
	<stop  offset="0.0584" style="stop-color:#4D4D4D"/>
	<stop  offset="0.3553" style="stop-color:#333333"/>
</linearGradient>
<path class="st15" d="M374.41,485.34H269.24c-44.19,0-80.13-35.95-80.13-80.14c0-44.19,35.94-80.13,80.13-80.13h128.44
	c44.19,0,80.13,35.95,80.13,80.13c0,14.97,12.13,27.11,27.11,27.11c14.97,0,27.11-12.14,27.11-27.11
	c0-74.08-60.27-134.35-134.35-134.35H269.24c-74.08,0-134.35,60.27-134.35,134.35c0,74.08,60.27,134.35,134.35,134.35h155.24
	C402.52,526.13,387.55,507.48,374.41,485.34z"/>
<g>
	<path class="st6" d="M103.01,826.56h6.07v38.55h-6.07V826.56z"/>
	<path class="st6" d="M121.81,826.56h11.68c8.59,0,14.72,2.93,14.72,11.63c0,8.43-6.13,12.31-14.52,12.31h-5.81v14.61h-6.07V826.56z
		 M133.12,845.62c6.18,0,9.11-2.35,9.11-7.43c0-5.09-3.2-6.76-9.32-6.76h-5.03v14.19H133.12z"/>
	<path class="st6" d="M172.66,854.53c4.03-0.15,8.06-0.47,11.83-1l0.47,3.98c-9.91,1.73-20.75,1.78-28.87,1.78l-0.72-4.45
		c3.56,0,7.64,0,11.88-0.1v-7.44c-5.86-1.05-10-5.34-10-11.16c0-6.7,5.39-11.37,12.68-11.37c7.27,0,12.62,4.66,12.62,11.37
		c0,5.82-4.04,10.05-9.9,11.1V854.53z M169.94,842.85c4.29,0,7.38-2.57,7.38-6.7c0-4.14-3.08-6.76-7.38-6.76
		c-4.3,0-7.44,2.62-7.44,6.76C162.5,840.28,165.64,842.85,169.94,842.85z M199.63,845.42h-6.97v23.68h-5.4v-47.25h5.4v19.06h6.97
		V845.42z"/>
	<path class="st6" d="M223.5,826.56h11.95c7.9,0,13.61,2.52,13.61,9.48c0,3.67-2.05,7.18-5.5,8.33v0.26
		c4.4,0.94,7.59,3.93,7.59,9.17c0,7.64-6.24,11.32-14.77,11.32H223.5V826.56z M234.76,842.64c5.87,0,8.33-2.2,8.33-5.81
		c0-4.03-2.72-5.55-8.17-5.55h-5.35v11.36H234.76z M235.7,860.34c6.03,0,9.48-2.15,9.48-6.86c0-4.35-3.35-6.24-9.48-6.24h-6.13
		v13.09H235.7z"/>
	<path class="st6" d="M261.05,826.56h6.08v38.55h-6.08V826.56z"/>
	<path class="st6" d="M277.23,861.44l19.33-29.8h-17.54v-5.08h25.03v3.61l-19.27,29.8h19.48v5.14h-27.03V861.44z"/>
	<path class="st6" d="M328.39,833.53c0,8.43,4.4,16.97,11.52,20.47l-3.3,4.3c-5.08-2.62-8.86-7.75-10.9-13.93
		c-2.04,6.55-6.02,12.04-11.42,14.82l-3.29-4.35c7.38-3.61,11.99-12.57,11.99-21.31v-7.75h5.39V833.53z M355.84,845.05h-7.38v24.09
		h-5.39v-47.29h5.39v18.76h7.38V845.05z"/>
	<path class="st6" d="M388.57,841.96c0,10.26-5.13,16.7-12.21,16.7c-7.01,0-12.14-6.44-12.14-16.7c0-10.16,5.13-16.66,12.14-16.66
		C383.43,825.3,388.57,831.8,388.57,841.96z M369.4,841.96c0,7.43,2.88,11.88,6.96,11.88c4.14,0,7.02-4.45,7.02-11.88
		c0-7.34-2.88-11.79-7.02-11.79C372.28,830.17,369.4,834.62,369.4,841.96z M401.56,821.8v47.45h-5.45V821.8H401.56z"/>
	<path class="st6" d="M427.63,848.09h13.83v4.45h-13.83V848.09z"/>
	<path class="st6" d="M471.41,825.72v12.05h12v-12.05h5.4v32.26h-22.74v-32.26H471.41z M471.41,853.63h12v-11.57h-12V853.63z
		 M502.46,821.8v47.45h-5.44V821.8H502.46z"/>
	<path class="st6" d="M557.13,854.63h-18.76v14.61h-5.38v-14.61h-18.75v-4.39h42.89V854.63z M552.52,845.99h-32.74v-22.1H552v4.3
		h-26.81v4.55h25.72v4.19h-25.72v4.76h27.34V845.99z"/>
	<path class="st6" d="M578.66,848.67c-4.56,0.15-8.9,0.21-12.73,0.21l-0.68-4.4c8.7,0,20.32-0.05,30.33-1.41l0.36,3.83
		c-3.93,0.73-7.91,1.2-11.89,1.41v7.96h-5.39V848.67z M568.65,832.53c0-5.35,4.87-8.8,11.99-8.8c7.07,0,11.94,3.46,11.94,8.8
		c0,5.39-4.87,8.9-11.94,8.9C573.53,841.44,568.65,837.92,568.65,832.53z M605.21,863.85v4.4h-33.73v-13.62h5.4v9.22H605.21z
		 M573.79,832.53c0,2.99,2.72,4.82,6.86,4.82c4.08,0,6.86-1.83,6.86-4.82c0-2.94-2.78-4.76-6.86-4.76
		C576.5,827.77,573.79,829.6,573.79,832.53z M604.01,857.77h-5.45v-35.93h5.45V857.77z"/>
	<path class="st6" d="M655.38,852.74c2.19-0.21,4.4-0.42,6.49-0.68l0.32,3.99c-9.8,1.63-20.74,1.78-28.96,1.78l-0.58-4.45
		c1.78,0,3.77,0,5.82,0v-22.42h-4.61v-4.35h26.13v4.35h-4.6V852.74z M643.69,853.27c2.09-0.05,4.29-0.16,6.44-0.26v-22.05h-6.44
		V853.27z M677.21,844.79h-7.38v24.4h-5.39v-47.34h5.39v18.49h7.38V844.79z"/>
	<path class="st6" d="M726.91,858.93v4.39h-42.89v-4.39H726.91z M722.09,851.18H689.3v-25.5h32.42v4.34H694.8v6.08h25.88v4.24H694.8
		v6.49h27.29V851.18z"/>
	<path class="st6" d="M742.67,853.43c6.55-0.05,12.88-0.58,19.54-1.89l0.62,4.46c-7.54,1.46-14.45,1.93-21.73,1.93h-3.78v-30.9h5.35
		V853.43z M774.09,821.85v47.4h-5.4v-27.81h-13.72v-4.4h13.72v-15.19H774.09z"/>
	<path class="st6" d="M828.44,858.61v4.46h-42.83v-4.46H828.44z M824.26,849.4c-7.7-1.57-14.35-6.5-17.44-12.99
		c-3.09,6.49-9.74,11.42-17.45,12.99l-2.3-4.45c9.32-1.73,16.92-9.01,16.92-16.5v-3.56h5.71v3.56c0,7.54,7.59,14.83,16.92,16.5
		L824.26,849.4z"/>
</g>
<text transform="matrix(1 0 0 1 -1180.4131 -18.7772)" style="display:none;fill:#830001; font-family:'AdobeGothicStd-Bold-KSCpc-EUC-H'; font-size:240px;">BtoWIN</text>
<g>
	<linearGradient id="SVGID_14_" gradientUnits="userSpaceOnUse" x1="80.3636" y1="258.5445" x2="81.4559" y2="260.7291">
		<stop  offset="0" style="stop-color:#901B15"/>
		<stop  offset="1" style="stop-color:#830001"/>
	</linearGradient>
	<path class="st16" d="M0,153.73v-49.11h16.81c13.1,0,19.64,4.59,19.64,13.76c0,1.58-0.27,2.97-0.8,4.17
		c-0.54,1.2-1.27,2.15-2.22,2.86c-0.94,0.71-1.75,1.22-2.4,1.54c-0.66,0.32-1.42,0.63-2.29,0.92c6.75,1.88,10.12,6,10.12,12.37
		c0,9-6.86,13.5-20.57,13.5H0z M12.65,123.82h6.51c1.17,0,2.24-0.37,3.2-1.11c0.96-0.74,1.44-1.74,1.44-3.01
		c0-1.67-0.55-2.88-1.66-3.63c-1.1-0.75-2.35-1.13-3.74-1.13h-5.75V123.82z M12.65,143.41h7.23c0.1,0,0.18,0,0.25,0
		c1.65,0.02,3.07-0.4,4.24-1.27c1.22-0.92,1.83-2.29,1.83-4.13c0-1.83-0.68-3.17-2.05-4.02c-1.37-0.84-2.86-1.27-4.49-1.27h-7.01
		V143.41z"/>
	<linearGradient id="SVGID_15_" gradientUnits="userSpaceOnUse" x1="114.8241" y1="241.3143" x2="115.9164" y2="243.4989">
		<stop  offset="0" style="stop-color:#901B15"/>
		<stop  offset="1" style="stop-color:#830001"/>
	</linearGradient>
	<path class="st17" d="M44.56,125.62v-8.63h5.03v-10.75h12.65v10.75h7.69v8.63h-7.69v17.73c0,0.55,0.22,1.02,0.67,1.4
		c0.45,0.38,0.98,0.57,1.61,0.57c1.52,0,3.32-0.61,5.41-1.83v9c-2.11,1.16-4.56,1.75-7.37,1.75c-4.26,0-7.49-1.12-9.69-3.36
		c-2.19-2.24-3.29-5.39-3.29-9.44v-15.81H44.56z"/>
	<linearGradient id="SVGID_16_" gradientUnits="userSpaceOnUse" x1="141.2722" y1="228.0902" x2="142.3645" y2="230.2748">
		<stop  offset="0" style="stop-color:#901B15"/>
		<stop  offset="1" style="stop-color:#830001"/>
	</linearGradient>
	<path class="st18" d="M81.86,149.38c-3.07-3.23-4.6-7.89-4.6-13.98c0-6.09,1.54-10.75,4.6-13.98c3.07-3.24,7.42-4.85,13.07-4.85
		c5.65,0,10,1.61,13.07,4.85c3.07,3.23,4.6,7.9,4.6,13.98c0,6.09-1.54,10.75-4.6,13.98c-3.07,3.24-7.42,4.85-13.07,4.85
		C89.28,154.23,84.93,152.62,81.86,149.38z M94.92,125.69c-3.34,0-5.01,3.24-5.01,9.71c0,6.47,1.67,9.71,5.01,9.71
		c3.35,0,5.01-3.23,5.01-9.71C99.94,128.93,98.27,125.69,94.92,125.69z"/>
	<linearGradient id="SVGID_17_" gradientUnits="userSpaceOnUse" x1="196.003" y1="200.7248" x2="197.0953" y2="202.9094">
		<stop  offset="0" style="stop-color:#901B15"/>
		<stop  offset="1" style="stop-color:#830001"/>
	</linearGradient>
	<path class="st19" d="M117.32,104.62h12.65l8.42,30.99l8.74-30.99h10.94l8.74,30.99l8.42-30.99h12.66l-15.25,49.11H161.1
		l-8.49-28.11l-8.49,28.11h-11.55L117.32,104.62z"/>
	<linearGradient id="SVGID_18_" gradientUnits="userSpaceOnUse" x1="230.8309" y1="183.3108" x2="231.9232" y2="185.4954">
		<stop  offset="0" style="stop-color:#901B15"/>
		<stop  offset="1" style="stop-color:#830001"/>
	</linearGradient>
	<path class="st20" d="M197.44,153.73v-49.11h12.65v49.11H197.44z"/>
	<linearGradient id="SVGID_19_" gradientUnits="userSpaceOnUse" x1="264.5355" y1="166.4586" x2="265.6278" y2="168.6432">
		<stop  offset="0" style="stop-color:#901B15"/>
		<stop  offset="1" style="stop-color:#830001"/>
	</linearGradient>
	<path class="st21" d="M223.26,153.73v-49.11h12.65l19.95,29.44v-29.44h12.65v49.11h-12.47l-20.13-29.23v29.23H223.26z"/>
</g>
<g>
	<linearGradient id="SVGID_20_" gradientUnits="userSpaceOnUse" x1="124.75" y1="99.6653" x2="26.8071" y2="-0.8263">
		<stop  offset="0" style="stop-color:#404040"/>
		<stop  offset="0.5838" style="stop-color:#333333"/>
	</linearGradient>
	<polygon class="st22" points="65.15,31.41 65.24,52.69 72.04,52.69 71.96,31.41 	"/>
	<linearGradient id="SVGID_21_" gradientUnits="userSpaceOnUse" x1="133.7042" y1="90.9382" x2="35.7614" y2="-9.5534">
		<stop  offset="0" style="stop-color:#404040"/>
		<stop  offset="0.5838" style="stop-color:#333333"/>
	</linearGradient>
	<path class="st23" d="M91.97,47.84c1.62,0,3-0.26,4.1-0.77c1.1-0.51,2.02-1.21,2.75-2.09c0.57-0.7,1.03-1.5,1.35-2.36
		c0.32-0.87,0.48-1.79,0.48-2.74c0-1.09-0.23-2.16-0.66-3.18c-0.44-1.03-1.06-1.94-1.84-2.71c-0.77-0.76-1.7-1.37-2.77-1.8
		c-1.05-0.42-2.34-0.63-3.85-0.63H78.35c-1.18,0-1.83,0.62-1.82,1.75l0.08,19.53h6.77l-0.02-5H91.97z M83.32,38.22h8.74
		c0.57,0,0.9,0.09,1.07,0.16c0.21,0.09,0.36,0.2,0.47,0.33c0.22,0.28,0.32,0.6,0.32,1.01c0,0.41-0.12,0.77-0.37,1.1
		c-0.16,0.22-0.39,0.41-0.67,0.54c-0.29,0.13-0.68,0.2-1.18,0.2h-8.35L83.32,38.22z"/>
</g>
<g>
	<linearGradient id="SVGID_22_" gradientUnits="userSpaceOnUse" x1="158.4633" y1="42.1232" x2="182.0893" y2="42.1232">
		<stop  offset="0" style="stop-color:#FFFFFF"/>
		<stop  offset="0" style="stop-color:#9B3A3B"/>
		<stop  offset="1" style="stop-color:#830001"/>
	</linearGradient>
	<path class="st24" d="M181.29,40.8c0.37-0.77,0.56-1.63,0.56-2.58c0-0.93-0.16-1.78-0.48-2.53c-0.32-0.75-0.75-1.43-1.28-2
		c-1.35-1.46-3.22-2.2-5.56-2.2h-14.21c-1.2,0-1.86,0.62-1.85,1.75l0.07,17.39c0,0.8,0.34,1.29,0.62,1.56
		c0.28,0.27,0.79,0.59,1.63,0.59h14.5c1.26,0,2.34-0.2,3.2-0.58c0.86-0.38,1.57-0.91,2.12-1.57c0.46-0.55,0.83-1.17,1.09-1.84
		c0.27-0.69,0.4-1.43,0.4-2.2c0-1.02-0.22-1.99-0.63-2.88c-0.23-0.5-0.54-0.94-0.9-1.32l-0.23-0.24l0.17-0.19
		C180.82,41.61,181.08,41.22,181.29,40.8z M174.97,45.01c0.05,0.11,0.08,0.21,0.08,0.34c0,0.28-0.09,0.53-0.28,0.76
		c-0.12,0.13-0.26,0.24-0.44,0.31c-0.17,0.07-0.41,0.11-0.71,0.11h-8.33l-0.01-1.96h8.71c0.34,0,0.52,0.04,0.59,0.07l0.11,0.05
		l-0.09,0.25l0.23-0.15c0.03,0.03,0.06,0.07,0.08,0.1l0.06,0.08L174.97,45.01z M174.9,38.56c0,0.23-0.08,0.44-0.24,0.64
		c-0.11,0.14-0.25,0.25-0.41,0.32c-0.14,0.07-0.36,0.11-0.64,0.11h-8.35l-0.01-1.75h8.73c0.16,0,0.3,0.01,0.41,0.04h0.04l0.08,0.04
		c0.07,0.04,0.12,0.07,0.17,0.11l0.11,0.12C174.87,38.29,174.9,38.41,174.9,38.56z"/>
	<linearGradient id="SVGID_23_" gradientUnits="userSpaceOnUse" x1="184.4208" y1="42.1232" x2="191.3087" y2="42.1232">
		<stop  offset="0" style="stop-color:#FFFFFF"/>
		<stop  offset="0" style="stop-color:#9B3A3B"/>
		<stop  offset="1" style="stop-color:#830001"/>
	</linearGradient>
	<polygon class="st25" points="184.42,31.48 184.51,52.77 191.31,52.77 191.23,31.48 	"/>
	<linearGradient id="SVGID_24_" gradientUnits="userSpaceOnUse" x1="193.5634" y1="42.1232" x2="234.4133" y2="42.1232">
		<stop  offset="0" style="stop-color:#FFFFFF"/>
		<stop  offset="0" style="stop-color:#9B3A3B"/>
		<stop  offset="1" style="stop-color:#830001"/>
	</linearGradient>
	<path class="st26" d="M217.73,46.28h-3.74h-9.47l9.68-7.24c0.49-0.36,0.83-0.66,1.04-0.92c0.21-0.26,0.38-0.53,0.49-0.8
		c0.24-0.56,0.37-1.14,0.36-1.72c0-0.46-0.1-0.94-0.3-1.41c-0.2-0.49-0.5-0.94-0.87-1.34c-0.39-0.42-0.88-0.75-1.46-1
		c-0.57-0.25-1.26-0.37-2.12-0.37h-17.69l0.03,6.66h11.71l-9.39,6.61c-0.4,0.29-0.7,0.5-0.89,0.64c-0.22,0.17-0.42,0.35-0.58,0.54
		c-0.32,0.39-0.57,0.8-0.72,1.22c-0.16,0.43-0.24,0.87-0.24,1.28c0,0.95,0.31,1.84,0.92,2.63c0.4,0.53,0.92,0.95,1.56,1.25
		c0.62,0.3,1.36,0.44,2.27,0.44h17.45h3.3h15.35l-1.78-6.49H217.73z"/>
</g>
<linearGradient id="SVGID_25_" gradientUnits="userSpaceOnUse" x1="110.0507" y1="42.1223" x2="237.8836" y2="42.1223">
	<stop  offset="0" style="stop-color:#FFFFFF"/>
	<stop  offset="0" style="stop-color:#9B3A3B"/>
	<stop  offset="1" style="stop-color:#830001"/>
</linearGradient>
<path class="st27" d="M159.47,17h36.29c13.85,0,25.12,11.27,25.12,25.12c0,13.85-11.27,25.13-25.12,25.13h-43.59
	c-13.85,0-25.12-11.27-25.12-25.13c0-4.69-3.81-8.5-8.5-8.5c-4.7,0-8.5,3.81-8.5,8.5c0,23.23,18.9,42.12,42.12,42.12h43.59
	c23.22,0,42.12-18.9,42.12-42.12C237.88,18.9,218.99,0,195.76,0h-51.99C150.65,4.21,155.35,10.06,159.47,17z"/>
<linearGradient id="SVGID_26_" gradientUnits="userSpaceOnUse" x1="128.1344" y1="66.0342" x2="5.0686" y2="-16.9806">
	<stop  offset="0.0584" style="stop-color:#4D4D4D"/>
	<stop  offset="0.3553" style="stop-color:#333333"/>
</linearGradient>
<path class="st28" d="M105.53,67.25H72.55c-13.85,0-25.12-11.27-25.12-25.13C47.43,28.27,58.7,17,72.55,17h40.27
	c13.85,0,25.12,11.27,25.12,25.12c0,4.69,3.8,8.5,8.5,8.5c4.69,0,8.5-3.81,8.5-8.5C154.94,18.9,136.05,0,112.82,0H72.55
	C49.33,0,30.43,18.9,30.43,42.12c0,23.23,18.9,42.12,42.12,42.12h48.67C114.34,80.04,109.65,74.19,105.53,67.25z"/>
</svg>
