<svg xmlns="http://www.w3.org/2000/svg" viewBox="0 0 143.55 94.43"><defs><style>.cls-1{fill:#333;}.cls-2{fill:#830001;}</style></defs><title>Asset 1</title><g id="Layer_2" data-name="Layer 2"><g id="Layer_1-2" data-name="Layer 1"><polygon class="cls-1" points="24.03 21.73 24.08 36.46 28.8 36.46 28.73 21.73 24.03 21.73"/><path class="cls-1" d="M42.59,33.1a6.77,6.77,0,0,0,2.83-.53,5.36,5.36,0,0,0,1.91-1.45,5.74,5.74,0,0,0,.93-1.63,5.28,5.28,0,0,0,.33-1.9,5.38,5.38,0,0,0-.46-2.19,5.92,5.92,0,0,0-1.26-1.88A5.75,5.75,0,0,0,45,22.27a7.28,7.28,0,0,0-2.67-.44H33.16a1.12,1.12,0,0,0-1.26,1.22L32,36.56h4.69V33.1Zm-6-6.66h6a1.69,1.69,0,0,1,.74.12.86.86,0,0,1,.33.22,1.1,1.1,0,0,1,.22.7,1.24,1.24,0,0,1-.73,1.13,1.84,1.84,0,0,1-.81.14H36.61Z"/><path class="cls-2" d="M104.39,28.23a4,4,0,0,0,.38-1.79,4.47,4.47,0,0,0-.33-1.75,5,5,0,0,0-.88-1.39,5,5,0,0,0-3.86-1.52H89.87A1.12,1.12,0,0,0,88.59,23l0,12a1.45,1.45,0,0,0,.43,1.07,1.54,1.54,0,0,0,1.12.41h10a5.47,5.47,0,0,0,2.22-.4A4,4,0,0,0,103.91,35a4.81,4.81,0,0,0,.76-1.27,4.32,4.32,0,0,0,.27-1.53,4.82,4.82,0,0,0-.44-2,3.19,3.19,0,0,0-.62-.91l-.16-.17.12-.12A3.35,3.35,0,0,0,104.39,28.23ZM100,31.15a.44.44,0,0,1,.06.23.88.88,0,0,1-.19.53,1,1,0,0,1-.31.22,1.34,1.34,0,0,1-.49.07H93.32V30.85h6a1.19,1.19,0,0,1,.41,0l.08,0-.06.18.15-.1a.19.19,0,0,1,.06.07l0,.05Zm0-4.47a.7.7,0,0,1-.17.44.89.89,0,0,1-.28.23,1,1,0,0,1-.44.07H93.29V26.21h6a1.14,1.14,0,0,1,.28,0h0l0,0a.57.57,0,0,1,.13.08l.07.08A.56.56,0,0,1,100,26.68Z"/><polygon class="cls-2" points="106.55 21.78 106.61 36.51 111.32 36.51 111.26 21.78 106.55 21.78"/><path class="cls-2" d="M129.6,32h-9.14l6.7-5a4.55,4.55,0,0,0,.72-.63,2.43,2.43,0,0,0,.33-.55,2.81,2.81,0,0,0,.25-1.2,2.59,2.59,0,0,0-.2-1,3.12,3.12,0,0,0-.61-.93,2.92,2.92,0,0,0-1-.69,3.63,3.63,0,0,0-1.46-.26H112.94v4.61h8.11L114.56,31l-.62.44a2.87,2.87,0,0,0-.4.37,3.11,3.11,0,0,0-.5.85,2.58,2.58,0,0,0-.16.89,3,3,0,0,0,.64,1.82,3,3,0,0,0,1.07.87,3.71,3.71,0,0,0,1.58.3h25L139.91,32Z"/><path class="cls-2" d="M89.29,11.76H114.4a17.39,17.39,0,1,1,0,34.77H84.24A17.4,17.4,0,0,1,66.86,29.15a5.89,5.89,0,0,0-11.77,0A29.18,29.18,0,0,0,84.24,58.29H114.4A29.15,29.15,0,1,0,114.4,0h-36C83.19,2.91,86.44,7,89.29,11.76Z"/><path class="cls-1" d="M52,46.53H29.15a17.39,17.39,0,1,1,0-34.77H57A17.4,17.4,0,0,1,74.39,29.15a5.89,5.89,0,0,0,11.77,0A29.18,29.18,0,0,0,57,0H29.15a29.15,29.15,0,1,0,0,58.29H62.82C58.06,55.38,54.81,51.33,52,46.53Z"/><path class="cls-2" d="M0,94.16V67.91H9q10.5,0,10.51,7.35a5.51,5.51,0,0,1-.43,2.23A3.82,3.82,0,0,1,17.87,79a8.7,8.7,0,0,1-1.28.82,8.51,8.51,0,0,1-1.23.49q5.41,1.52,5.41,6.61,0,7.22-11,7.22Zm6.76-16h3.48A2.75,2.75,0,0,0,12,77.58,1.92,1.92,0,0,0,12.72,76a2.2,2.2,0,0,0-.88-2,3.49,3.49,0,0,0-2-.6H6.76Zm0,10.48h4A3.68,3.68,0,0,0,13,88a2.6,2.6,0,0,0,1-2.21,2.37,2.37,0,0,0-1.09-2.15,4.54,4.54,0,0,0-2.41-.67H6.76Z"/><path class="cls-2" d="M23.82,79.13V74.52h2.69V68.77h6.77v5.75h4.11v4.61H33.28v9.48a1,1,0,0,0,.35.75,1.31,1.31,0,0,0,.86.3,6,6,0,0,0,2.9-1V93.5a8.05,8.05,0,0,1-3.94.93,6.92,6.92,0,0,1-5.18-1.8,6.93,6.93,0,0,1-1.76-5V79.13Z"/><path class="cls-2" d="M43.76,91.83q-2.46-2.6-2.46-7.47t2.46-7.48a9.16,9.16,0,0,1,7-2.59,9.17,9.17,0,0,1,7,2.59q2.46,2.59,2.46,7.48t-2.46,7.47a9.17,9.17,0,0,1-7,2.6A9.16,9.16,0,0,1,43.76,91.83Zm7-12.66c-1.78,0-2.68,1.73-2.68,5.19s.9,5.19,2.68,5.19,2.69-1.73,2.69-5.19S52.53,79.17,50.74,79.17Z"/><path class="cls-2" d="M62.72,67.91h6.76L74,84.47l4.68-16.56h5.85l4.67,16.56,4.5-16.56h6.76L92.29,94.16H86.12l-4.54-15L77,94.16H70.87Z"/><path class="cls-2" d="M105.54,94.16V67.91h6.77V94.16Z"/><path class="cls-2" d="M119.35,94.16V67.91h6.77l10.66,15.74V67.91h6.77V94.16h-6.67L126.12,78.53V94.16Z"/></g></g></svg>