<?xml version="1.0" encoding="utf-8"?>
<!-- Generator: Adobe Illustrator 24.1.2, SVG Export Plug-In . SVG Version: 6.00 Build 0)  -->
<svg version="1.1" id="Layer_1" xmlns="http://www.w3.org/2000/svg" xmlns:xlink="http://www.w3.org/1999/xlink" x="0px" y="0px"
	 viewBox="0 0 472.34 154.98" style="enable-background:new 0 0 472.34 154.98;" xml:space="preserve">
<style type="text/css">
	.st0{fill:#262161;}
	.st1{fill:#1A75BC;}
	.st2{fill:none;stroke:#1A75BC;stroke-width:11;stroke-miterlimit:10;}
	.st3{fill:none;stroke:#262161;stroke-width:11;stroke-miterlimit:10;}
</style>
<g>
	<g>
		<path class="st0" d="M155.18,114.22c-0.71,0-1.21-0.13-1.5-0.39c-0.29-0.26-0.43-0.77-0.43-1.54V41.81c0-1.29,0.64-1.93,1.93-1.93
			h9.27c1.29,0,1.93,0.64,1.93,1.93v70.47c0,0.77-0.15,1.29-0.43,1.54c-0.29,0.26-0.79,0.39-1.5,0.39H155.18z"/>
		<path class="st0" d="M192.25,85.35v26.93c0,0.9-0.14,1.46-0.43,1.69c-0.29,0.22-0.79,0.34-1.5,0.34h-9.27
			c-0.64,0-1.13-0.11-1.45-0.34c-0.32-0.23-0.48-0.79-0.48-1.69V41.91c0-0.77,0.18-1.29,0.53-1.54c0.35-0.26,0.79-0.39,1.3-0.39
			h19.31c3.54,0,6.77,0.45,9.7,1.35c2.93,0.9,5.42,2.29,7.48,4.15c2.06,1.87,3.65,4.2,4.78,7c1.13,2.8,1.69,6.13,1.69,9.99
			c0,3.73-0.63,7.02-1.88,9.85c-1.25,2.83-2.96,5.21-5.12,7.14c-2.16,1.93-4.73,3.4-7.72,4.39c-2.99,1-6.23,1.5-9.7,1.5H192.25z
			 M192.25,51.95v21.43h6.37c3.86,0,6.82-0.87,8.88-2.61c2.06-1.74,3.09-4.54,3.09-8.4c0-3.41-0.82-6-2.46-7.77
			c-1.64-1.77-3.81-2.65-6.52-2.65H192.25z"/>
		<path class="st1" d="M292.55,111.8c-1.16,0.58-2.64,1.09-4.44,1.54c-1.8,0.45-3.72,0.82-5.74,1.11c-2.03,0.29-4.09,0.51-6.18,0.68
			c-2.09,0.16-4.01,0.24-5.74,0.24c-5.41,0-10.41-0.85-15.01-2.56c-4.6-1.71-8.56-4.18-11.87-7.43c-3.32-3.25-5.92-7.26-7.82-12.02
			c-1.9-4.76-2.85-10.2-2.85-16.31c0-5.53,0.88-10.65,2.65-15.35c1.77-4.7,4.28-8.75,7.53-12.16c3.25-3.41,7.19-6.07,11.83-7.96
			c4.63-1.9,9.85-2.85,15.64-2.85c3.8,0,7.3,0.24,10.52,0.72c3.22,0.48,6.21,1.14,8.98,1.98c0.97,0.32,1.53,0.63,1.69,0.92
			c0.16,0.29,0.18,0.72,0.05,1.3l-1.45,8.59c-0.13,0.97-0.4,1.46-0.82,1.5c-0.42,0.03-1.11-0.11-2.08-0.43
			c-2.9-0.97-5.74-1.64-8.54-2.03c-2.8-0.39-5.62-0.58-8.45-0.58c-3.54,0-6.77,0.64-9.7,1.93c-2.93,1.29-5.46,3.11-7.58,5.45
			c-2.12,2.35-3.78,5.13-4.97,8.35c-1.19,3.22-1.79,6.76-1.79,10.62c0,4.18,0.59,7.92,1.79,11.2c1.19,3.28,2.86,6.07,5.02,8.35
			c2.16,2.29,4.7,4.02,7.63,5.21c2.93,1.19,6.13,1.79,9.61,1.79c2.38,0,4.55-0.08,6.52-0.24c1.96-0.16,3.46-0.4,4.49-0.72V84.77
			h-14.77c-1.29,0-1.93-0.64-1.93-1.93v-8.21c0-1.29,0.68-1.93,2.03-1.93h24.71c1.48,0,2.37,0.19,2.66,0.58
			c0.29,0.39,0.43,1.22,0.43,2.51v32.05c0,1.22-0.16,2.08-0.48,2.56C293.77,110.89,293.26,111.35,292.55,111.8z"/>
		<path class="st1" d="M350.18,114.22c-0.77,0-1.27-0.08-1.5-0.24c-0.23-0.16-0.5-0.6-0.82-1.3l-13.71-27.51h-8.88v27.03
			c0,0.9-0.13,1.46-0.39,1.69c-0.26,0.22-0.74,0.34-1.45,0.34h-9.36c-0.64,0-1.13-0.11-1.45-0.34c-0.32-0.23-0.48-0.79-0.48-1.69
			V41.81c0-0.77,0.18-1.29,0.53-1.54c0.35-0.26,0.79-0.39,1.3-0.39h19.4c3.6,0,6.87,0.45,9.8,1.35c2.93,0.9,5.42,2.29,7.48,4.15
			c2.06,1.87,3.65,4.2,4.78,7c1.13,2.8,1.69,6.13,1.69,9.99c0,4.63-1,8.58-2.99,11.83c-2,3.25-4.63,5.81-7.92,7.67l15.64,29.83
			c0.51,0.97,0.71,1.62,0.58,1.98c-0.13,0.35-0.68,0.53-1.64,0.53H350.18z M325.28,51.76v21.62h6.47c3.86,0,6.85-0.88,8.98-2.65
			c2.12-1.77,3.19-4.59,3.19-8.45c0-3.48-0.85-6.1-2.56-7.87c-1.71-1.77-3.91-2.65-6.61-2.65H325.28z"/>
		<path class="st1" d="M371.23,114.22c-0.71,0-1.21-0.13-1.5-0.39c-0.29-0.26-0.43-0.77-0.43-1.54V41.81c0-1.29,0.64-1.93,1.93-1.93
			h9.27c1.29,0,1.93,0.64,1.93,1.93v70.47c0,0.77-0.14,1.29-0.43,1.54c-0.29,0.26-0.79,0.39-1.5,0.39H371.23z"/>
		<path class="st1" d="M460.53,114.22c-0.84,0-1.35-0.11-1.54-0.34c-0.19-0.23-0.29-0.72-0.29-1.5V63.92l-18.83,48.17
			c-0.32,0.71-0.61,1.16-0.87,1.35c-0.26,0.19-0.74,0.29-1.45,0.29h-8.4c-0.71,0-1.21-0.1-1.5-0.29c-0.29-0.19-0.56-0.64-0.82-1.35
			l-18.82-48.17v48.46c0,0.77-0.1,1.27-0.29,1.5c-0.19,0.22-0.71,0.34-1.54,0.34h-9.46c-0.84,0-1.35-0.11-1.54-0.34
			c-0.19-0.23-0.29-0.72-0.29-1.5v-69.6c0-1.35,0.14-2.17,0.43-2.46s1.08-0.43,2.37-0.43h10.81c0.58,0,1.03,0.1,1.35,0.29
			c0.32,0.19,0.61,0.61,0.87,1.26l22.59,56.09l22.69-56.09c0.39-1.03,1.19-1.54,2.41-1.54h10.52c1.35,0,2.17,0.15,2.46,0.43
			c0.29,0.29,0.43,1.11,0.43,2.46v69.6c0,0.77-0.11,1.27-0.34,1.5c-0.23,0.22-0.72,0.34-1.5,0.34H460.53z"/>
	</g>
</g>
<g>
	<path class="st2" d="M119.15,79.28c6.24,6.24,6.24,16.37,0,22.61l-42.9,42.9c-6.24,6.24-16.37,6.24-22.61,0l-42.9-42.9
		c-6.24-6.24-6.24-16.37,0-22.61"/>
	<path class="st3" d="M119.15,53.49l-42.9-42.9c-6.24-6.24-16.37-6.24-22.61,0l-42.9,42.9c-6.24,6.24-6.24,16.37,0,22.61l42.9,42.9
		c6.24,6.24,16.37,6.24,22.61,0l42.9-42.9C125.39,69.86,125.39,59.73,119.15,53.49z"/>
</g>
</svg>
