<?xml version="1.0" encoding="utf-8"?>
<!-- Generator: Adobe Illustrator 24.1.2, SVG Export Plug-In . SVG Version: 6.00 Build 0)  -->
<svg version="1.1" id="Layer_1" xmlns="http://www.w3.org/2000/svg" xmlns:xlink="http://www.w3.org/1999/xlink" x="0px" y="0px"
	 viewBox="0 0 1036 200" style="enable-background:new 0 0 1036 200;" xml:space="preserve">
<style type="text/css">
	.st0{fill:#949699;}
	.st1{fill:url(#SVGID_1_);}
	.st2{fill:url(#SVGID_2_);}
	.st3{fill:url(#SVGID_3_);}
	.st4{fill:url(#SVGID_4_);}
	.st5{fill:url(#SVGID_5_);}
	.st6{fill:url(#SVGID_6_);}
	.st7{fill:url(#SVGID_7_);}
	.st8{fill:url(#SVGID_8_);}
	.st9{fill-rule:evenodd;clip-rule:evenodd;fill:url(#SVGID_9_);}
</style>
<g>
	<path class="st0" d="M336,51.89v24.12h-31.98v97.84h-30.65V76.02H241.2V51.89H336z"/>
</g>
<g>
	<path class="st0" d="M423.42,133.2h-61.5c-0.06,1.61-0.1,3.01-0.1,4.2c0,6.43,1.81,11.29,5.44,14.56
		c3.63,3.28,7.96,4.92,13.01,4.92c9.4,0,15.04-4.74,16.93-14.21l25.55,1.79c-7.13,20.85-21.6,31.27-43.43,31.27
		c-9.52,0-17.61-1.8-24.27-5.41c-6.66-3.6-12.14-8.86-16.46-15.77c-4.32-6.91-6.48-15.19-6.48-24.84c0-14.35,4.34-25.94,13.01-34.76
		c8.67-8.81,19.82-13.22,33.44-13.22c12.3,0,22.85,4.1,31.65,12.29C419.02,102.22,423.42,115.28,423.42,133.2z M361.83,117.75h33.96
		c-0.88-12.39-6.28-18.58-16.18-18.58C369.02,99.16,363.09,105.36,361.83,117.75z"/>
</g>
<g>
	<path class="st0" d="M525.22,140c-1.07,10.66-5.54,19.29-13.39,25.87c-7.85,6.58-17.99,9.87-30.42,9.87
		c-13.5,0-24.49-4.21-32.97-12.64c-8.49-8.43-12.73-19.7-12.73-33.82c0-14.12,4.34-25.57,13.01-34.36
		c8.67-8.79,20.26-13.18,34.77-13.18c11.67,0,21.33,3.31,29,9.92c7.66,6.61,11.9,14.89,12.73,24.84l-26.3,1.43
		c-0.88-10.84-5.86-16.26-14.95-16.26c-11.17,0-16.75,8.64-16.75,25.91c0,11.5,1.56,18.79,4.68,21.89c3.12,3.1,6.92,4.65,11.4,4.65
		c8.7,0,13.91-5.21,15.61-15.64L525.22,140z"/>
</g>
<g>
	<path class="st0" d="M569.03,51.89v43.99c5.17-9.43,13.78-14.15,25.83-14.15c6.43,0,11.94,1.33,16.51,3.98
		c4.57,2.65,7.79,6.06,9.65,10.23c1.86,4.17,2.79,10.27,2.79,18.32v59.6h-28.19v-50.91c0-6.08-0.25-10.26-0.75-12.52
		c-0.5-2.27-1.65-4.16-3.44-5.68c-1.79-1.52-4.04-2.28-6.74-2.28c-3.52,0-7.01,1.3-10.46,3.89c-3.46,2.59-5.18,8.12-5.18,16.59
		v50.91h-27.34V51.89H569.03z"/>
</g>
<g>
	<path class="st0" d="M859.94,105.42l-20.53,5.18c-2.4-8.16-8.61-12.24-18.64-12.24c-9.46,0-14.19,2.72-14.19,8.15
		c0,2.15,0.87,3.86,2.6,5.15c1.73,1.28,6.26,2.37,13.58,3.25c10.91,1.36,18.99,2.93,24.22,4.72c5.23,1.79,9.38,4.8,12.44,9.02
		c3.06,4.23,4.59,9.44,4.59,15.64c0,9.29-3.74,16.86-11.21,22.7c-7.47,5.84-17.93,8.76-31.36,8.76c-24.35,0-38.88-8.9-43.61-26.72
		l23.75-3.31c1.95,8.1,9.02,12.15,21.19,12.15c4.67,0,8.61-0.79,11.83-2.37c3.22-1.58,4.82-3.72,4.82-6.4
		c0-4.18-3.56-6.65-10.69-7.42c-19.3-2.24-32-5.74-38.08-10.47c-6.09-4.74-9.13-11.33-9.13-19.79c0-8.58,3.53-15.67,10.6-21.27
		c7.06-5.6,16.97-8.4,29.71-8.4c10.09,0,18.16,1.88,24.22,5.63C852.09,91.12,856.73,97.14,859.94,105.42z"/>
</g>
<g>
	<path class="st0" d="M919.69,81.74c14.55,0,25.91,4.5,34.07,13.49c8.16,9,12.24,20.25,12.24,33.78c0,13.34-4.24,24.47-12.71,33.37
		c-8.48,8.91-19.74,13.36-33.79,13.36c-13.61,0-24.49-4.41-32.65-13.22c-8.16-8.81-12.24-20.13-12.24-33.95
		c0-9.59,1.84-17.74,5.53-24.44c3.68-6.7,8.74-12.11,15.17-16.22C901.73,83.79,909.86,81.74,919.69,81.74z M920.45,99.16
		c-5.34,0-9.37,1.95-12.07,5.85c-2.7,3.9-4.06,11.66-4.06,23.28c0,10.66,1.29,18.32,3.87,22.96c2.58,4.65,6.6,6.97,12.07,6.97
		c4.78,0,8.65-1.98,11.6-5.94c2.95-3.96,4.43-11.51,4.43-22.65c0-11.85-1.3-19.89-3.91-24.12
		C929.77,101.28,925.79,99.16,920.45,99.16z"/>
</g>
<g>
	<path class="st0" d="M1011.13,173.86h-27.34V83.61h25.83v16.8c3.97-12.51,10.85-18.76,20.63-18.76c1.39,0,3.09,0.09,5.11,0.27
		v26.27c-5.74,0-10.2,0.83-13.39,2.5c-3.19,1.67-5.79,4.66-7.81,8.98c-2.02,4.32-3.03,10.14-3.03,17.47V173.86z"/>
</g>
<g>
	<g>
		<path class="st0" d="M737.05,109.23v64.63h28.19V83.61h-2.79C755.84,88.88,744.94,98.37,737.05,109.23z"/>
	</g>
</g>
<g>
	<g>
		<g>
			<g>
				<linearGradient id="SVGID_1_" gradientUnits="userSpaceOnUse" x1="629.6484" y1="100.0776" x2="877.3856" y2="100.0776">
					<stop  offset="0.1257" style="stop-color:#1E88E5"/>
					<stop  offset="0.1852" style="stop-color:#1B93E7"/>
					<stop  offset="0.2886" style="stop-color:#14AFEE"/>
					<stop  offset="0.4225" style="stop-color:#09DDF8"/>
					<stop  offset="0.5112" style="stop-color:#00FFFF"/>
					<stop  offset="1" style="stop-color:#1E88E5"/>
				</linearGradient>
				<path class="st1" d="M877.39,26.3L830.77,37.4c-55.81,13.3-101.01,54.08-119.95,108.24l-9.87,28.22h-32.51L629.65,52.75h32.2
					l25.84,86.35l2.78-6.35c23.74-54.25,74.22-92.06,132.96-99.56L877.39,26.3z"/>
			</g>
		</g>
	</g>
	<g>
		<g>
			<g>
				<linearGradient id="SVGID_2_" gradientUnits="userSpaceOnUse" x1="31.6922" y1="86.4976" x2="39.8227" y2="86.4976">
					<stop  offset="0.1257" style="stop-color:#1E88E5"/>
					<stop  offset="0.1852" style="stop-color:#1B93E7"/>
					<stop  offset="0.2886" style="stop-color:#14AFEE"/>
					<stop  offset="0.4225" style="stop-color:#09DDF8"/>
					<stop  offset="0.5112" style="stop-color:#00FFFF"/>
					<stop  offset="1" style="stop-color:#1E88E5"/>
				</linearGradient>
				<path class="st2" d="M39.82,86.77c0.01-2.18-1.81-4.07-4.05-4.22s-4.07,1.49-4.08,3.67c-0.01,2.18,1.81,4.07,4.05,4.22
					C37.99,90.59,39.82,88.95,39.82,86.77z"/>
			</g>
		</g>
	</g>
	<g>
		<g>
			<g>
				<linearGradient id="SVGID_3_" gradientUnits="userSpaceOnUse" x1="58.2541" y1="46.8489" x2="66.3845" y2="46.8489">
					<stop  offset="0.1257" style="stop-color:#1E88E5"/>
					<stop  offset="0.1852" style="stop-color:#1B93E7"/>
					<stop  offset="0.2886" style="stop-color:#14AFEE"/>
					<stop  offset="0.4225" style="stop-color:#09DDF8"/>
					<stop  offset="0.5112" style="stop-color:#00FFFF"/>
					<stop  offset="1" style="stop-color:#1E88E5"/>
				</linearGradient>
				<path class="st3" d="M66.38,47.12c0.01-2.18-1.81-4.07-4.05-4.22c-2.25-0.15-4.07,1.49-4.08,3.67s1.81,4.07,4.05,4.22
					S66.38,49.3,66.38,47.12z"/>
			</g>
		</g>
	</g>
	<g>
		<g>
			<g>
				<linearGradient id="SVGID_4_" gradientUnits="userSpaceOnUse" x1="80.5668" y1="62.1617" x2="88.6973" y2="62.1617">
					<stop  offset="0.1257" style="stop-color:#1E88E5"/>
					<stop  offset="0.1852" style="stop-color:#1B93E7"/>
					<stop  offset="0.2886" style="stop-color:#14AFEE"/>
					<stop  offset="0.4225" style="stop-color:#09DDF8"/>
					<stop  offset="0.5112" style="stop-color:#00FFFF"/>
					<stop  offset="1" style="stop-color:#1E88E5"/>
				</linearGradient>
				<path class="st4" d="M88.7,62.44c0.01-2.18-1.81-4.07-4.05-4.22s-4.07,1.49-4.08,3.67c-0.01,2.18,1.81,4.07,4.05,4.22
					C86.86,66.26,88.69,64.61,88.7,62.44z"/>
			</g>
		</g>
	</g>
	<g>
		<g>
			<g>
				<linearGradient id="SVGID_5_" gradientUnits="userSpaceOnUse" x1="107.1484" y1="16.5949" x2="115.2789" y2="16.5949">
					<stop  offset="0.1257" style="stop-color:#1E88E5"/>
					<stop  offset="0.1852" style="stop-color:#1B93E7"/>
					<stop  offset="0.2886" style="stop-color:#14AFEE"/>
					<stop  offset="0.4225" style="stop-color:#09DDF8"/>
					<stop  offset="0.5112" style="stop-color:#00FFFF"/>
					<stop  offset="1" style="stop-color:#1E88E5"/>
				</linearGradient>
				<path class="st5" d="M115.28,16.87c0.01-2.18-1.81-4.07-4.05-4.22c-2.25-0.15-4.07,1.49-4.08,3.67s1.81,4.07,4.05,4.22
					C113.45,20.69,115.27,19.05,115.28,16.87z"/>
			</g>
		</g>
	</g>
	<g>
		<g>
			<g>
				<linearGradient id="SVGID_6_" gradientUnits="userSpaceOnUse" x1="127.422" y1="33.7437" x2="135.5525" y2="33.7437">
					<stop  offset="0.1257" style="stop-color:#1E88E5"/>
					<stop  offset="0.1852" style="stop-color:#1B93E7"/>
					<stop  offset="0.2886" style="stop-color:#14AFEE"/>
					<stop  offset="0.4225" style="stop-color:#09DDF8"/>
					<stop  offset="0.5112" style="stop-color:#00FFFF"/>
					<stop  offset="1" style="stop-color:#1E88E5"/>
				</linearGradient>
				<path class="st6" d="M135.55,34.02c0.01-2.18-1.81-4.07-4.05-4.22c-2.25-0.15-4.07,1.49-4.08,3.67s1.81,4.07,4.05,4.22
					C133.72,37.84,135.55,36.2,135.55,34.02z"/>
			</g>
		</g>
	</g>
	<g>
		<g>
			<g>
				<linearGradient id="SVGID_7_" gradientUnits="userSpaceOnUse" x1="149.8792" y1="5.6575" x2="158.0097" y2="5.6575">
					<stop  offset="0.1257" style="stop-color:#1E88E5"/>
					<stop  offset="0.1852" style="stop-color:#1B93E7"/>
					<stop  offset="0.2886" style="stop-color:#14AFEE"/>
					<stop  offset="0.4225" style="stop-color:#09DDF8"/>
					<stop  offset="0.5112" style="stop-color:#00FFFF"/>
					<stop  offset="1" style="stop-color:#1E88E5"/>
				</linearGradient>
				<path class="st7" d="M158.01,5.93c0.01-2.18-1.81-4.07-4.05-4.22s-4.07,1.49-4.08,3.67c-0.01,2.18,1.81,4.07,4.05,4.22
					S158,8.11,158.01,5.93z"/>
			</g>
		</g>
	</g>
	<g>
		<g>
			<g>
				<linearGradient id="SVGID_8_" gradientUnits="userSpaceOnUse" x1="34.9262" y1="46.0411" x2="154.7227" y2="46.0411">
					<stop  offset="0.1257" style="stop-color:#1E88E5"/>
					<stop  offset="0.1852" style="stop-color:#1B93E7"/>
					<stop  offset="0.2886" style="stop-color:#14AFEE"/>
					<stop  offset="0.4225" style="stop-color:#09DDF8"/>
					<stop  offset="0.5112" style="stop-color:#00FFFF"/>
					<stop  offset="1" style="stop-color:#1E88E5"/>
				</linearGradient>
				<polygon class="st8" points="36.59,87.06 34.93,85.94 62.05,45.45 84.31,60.73 110.98,15.01 130.37,33.19 153.17,5.03 
					154.72,6.29 130.57,36.13 111.44,18.19 84.95,63.6 62.59,48.25 				"/>
			</g>
		</g>
	</g>
	<g>
		<g>
			<g>
				<linearGradient id="SVGID_9_" gradientUnits="userSpaceOnUse" x1="1.8903" y1="147.9686" x2="198.1717" y2="147.9686">
					<stop  offset="0.1257" style="stop-color:#1E88E5"/>
					<stop  offset="0.1852" style="stop-color:#1B93E7"/>
					<stop  offset="0.2886" style="stop-color:#14AFEE"/>
					<stop  offset="0.4225" style="stop-color:#09DDF8"/>
					<stop  offset="0.5112" style="stop-color:#00FFFF"/>
					<stop  offset="1" style="stop-color:#1E88E5"/>
				</linearGradient>
				<path class="st9" d="M195.25,114.81c-4.48,0.43-8.95,0.86-13.43,1.29c-0.78-2.8-2.46-5.3-5.02-7.39
					c3.08-2.19,6.12-4.35,9.11-6.48c1.17-0.83,1.06-1.92-0.01-2.26c-2.04-0.65-4.08-1.29-6.11-1.94c-1.99-0.63-3.98-1.26-5.96-1.89
					c-1.01-0.32-3.45-0.07-5.01,0.61c-3.68,1.59-5.38,2.33-7.53,3.27c-1.9,0.83-3.78,1.72-5.53,2.8c-0.49,0.3-0.44,0.14,0,0.33
					c7.31,3.13,10.25,8.6,8.45,15.22c-2.11,7.74-10.56,17.31-25.4,26.67c-15.98,10.07-35.6,17.61-53.89,21.27
					c-18.55,3.71-34.6,3.21-43.08-2.28c-7.88-5.1-7.3-13.36-0.69-22.2l-4.2,0.94c-6.35,1.66-8.77,2.28-16.31,4.25
					c-2.2,0.57-5.01,2.18-5.9,3.28c-1.72,2.11-3.48,4.25-5.27,6.41c-1.83,2.21-3.67,4.45-5.52,6.71c-0.98,1.2-0.29,2.28,1.7,2.09
					c5-0.48,9.99-0.97,14.99-1.45c-1.29,3.9-1.37,7.56-0.1,10.81L4.45,185.06c-2.23,1.41-3.12,3.3-2.2,3.95
					c1.81,1.28,3.64,2.58,5.47,3.87c1.87,1.32,3.74,2.65,5.63,3.99c1,0.71,4.25,0.39,6.87-0.86c6.47-3.09,12.82-6.14,19.08-9.14
					c5.89,1.17,12.8,1.52,20.43,1.11l-3.04,10.19c-0.42,1.42,1.82,2.1,4.29,1.6c4.76-0.96,9.49-1.93,14.24-2.9
					c4.73-0.96,9.42-1.91,14.11-2.86c2.44-0.5,5.95-2.34,7.09-3.88c2.79-3.78,5.5-7.48,8.16-11.1c8.65-2.82,17.25-6.22,25.49-10.13
					c3.92,0.93,7.86,1.86,11.85,2.8c1.61,0.38,4.99-0.61,6.91-1.86c3.64-2.37,7.22-4.7,10.8-7.03c3.46-2.25,6.92-4.51,10.35-6.74
					c1.73-1.13,2.79-2.96,1.86-3.7l-6.85-5.4c4.99-4.29,8.9-8.51,11.73-12.53c5.01-1.38,9.99-2.76,14.95-4.14
					c1.97-0.55,3.89-2.05,4.12-3.06c0.43-1.88,0.82-3.73,1.2-5.56c0.39-1.81,0.77-3.58,1.17-5.34
					C198.35,115.43,197.02,114.64,195.25,114.81z"/>
			</g>
		</g>
	</g>
</g>
<g>
	<path class="st0" d="M114.48,150.43l0.25-73.85l-30.44-2.05L84,159.56c0.31-0.06,0.62-0.11,0.93-0.17
		C94.66,157.43,104.75,154.36,114.48,150.43z"/>
</g>
<g>
	<path class="st0" d="M76.16,160.83l0.16-49.13l-30.44-2.05l-0.16,49.39C53.06,161.97,63.79,162.47,76.16,160.83z"/>
</g>
<g>
	<path class="st0" d="M152.85,127.58l0.28-82.98l-30.44-2.05L122.33,147c5.76-2.68,11.33-5.64,16.49-8.9
		C144.4,134.59,149.07,131.05,152.85,127.58z"/>
</g>
</svg>
