<?xml version="1.0" encoding="utf-8"?>
<!-- Generator: Adobe Illustrator 23.0.3, SVG Export Plug-In . SVG Version: 6.00 Build 0)  -->
<svg version="1.1" id="Layer_1" xmlns="http://www.w3.org/2000/svg" xmlns:xlink="http://www.w3.org/1999/xlink" x="0px" y="0px"
	 viewBox="0 0 661.67 268.99" style="enable-background:new 0 0 661.67 268.99;" xml:space="preserve">
<style type="text/css">
	.st0{fill:url(#SVGID_1_);}
	.st1{fill:url(#SVGID_2_);}
	.st2{fill:url(#SVGID_3_);}
	.st3{fill:url(#SVGID_4_);}
	.st4{fill:url(#SVGID_5_);}
	.st5{fill:url(#SVGID_6_);}
	.st6{fill:#333333;}
	.st7{fill:#830001;}
	.st8{fill:#898989;}
	.st9{fill:url(#SVGID_7_);}
	.st10{fill:url(#SVGID_8_);}
	.st11{fill:url(#SVGID_9_);}
	.st12{fill:url(#SVGID_10_);}
	.st13{fill:url(#SVGID_11_);}
	.st14{fill:url(#SVGID_12_);}
	.st15{fill:url(#SVGID_13_);}
</style>
<g>
	<linearGradient id="SVGID_1_" gradientUnits="userSpaceOnUse" x1="159.2642" y1="824.9135" x2="162.7481" y2="831.8812">
		<stop  offset="0" style="stop-color:#901B15"/>
		<stop  offset="1" style="stop-color:#830001"/>
	</linearGradient>
	<path class="st0" d="M-97.05,490.61V333.98h53.61c41.77,0,62.66,14.63,62.66,43.88c0,5.03-0.85,9.47-2.55,13.29
		c-1.71,3.82-4.06,6.86-7.07,9.11c-3.01,2.25-5.57,3.9-7.66,4.92c-2.1,1.03-4.54,2.01-7.32,2.92c21.52,6,32.28,19.15,32.28,39.44
		c0,28.71-21.87,43.07-65.62,43.07H-97.05z M-56.69,395.22h20.75c3.75,0,7.15-1.18,10.2-3.55c3.06-2.36,4.6-5.56,4.6-9.59
		c0-5.33-1.77-9.19-5.28-11.58c-3.52-2.4-7.49-3.6-11.92-3.6h-18.35V395.22z M-56.69,457.7h23.05c0.31,0,0.58,0,0.81,0
		c5.27,0.08,9.78-1.27,13.52-4.04c3.9-2.93,5.85-7.32,5.85-13.16c0-5.85-2.18-10.12-6.54-12.82c-4.36-2.69-9.14-4.04-14.34-4.04
		h-22.36V457.7z"/>
	<linearGradient id="SVGID_2_" gradientUnits="userSpaceOnUse" x1="269.1752" y1="769.958" x2="272.6591" y2="776.9257">
		<stop  offset="0" style="stop-color:#901B15"/>
		<stop  offset="1" style="stop-color:#830001"/>
	</linearGradient>
	<path class="st1" d="M45.07,400.94v-27.52h16.05v-34.28h40.36v34.28h24.53v27.52h-24.53v56.55c0,1.75,0.71,3.24,2.13,4.46
		c1.42,1.21,3.13,1.83,5.13,1.83c4.84,0,10.6-1.94,17.27-5.82v28.69c-6.72,3.71-14.55,5.57-23.51,5.57c-13.6,0-23.9-3.57-30.9-10.72
		c-6.99-7.15-10.48-17.19-10.48-30.12v-50.43H45.07z"/>
	<linearGradient id="SVGID_3_" gradientUnits="userSpaceOnUse" x1="353.5312" y1="727.78" x2="357.015" y2="734.7477">
		<stop  offset="0" style="stop-color:#901B15"/>
		<stop  offset="1" style="stop-color:#830001"/>
	</linearGradient>
	<path class="st2" d="M164.03,476.73c-9.78-10.31-14.68-25.18-14.68-44.6c0-19.41,4.9-34.28,14.68-44.6
		c9.78-10.33,23.68-15.48,41.68-15.48c18.01,0,31.9,5.15,41.68,15.48c9.78,10.32,14.68,25.18,14.68,44.6
		c0,19.42-4.9,34.29-14.68,44.6c-9.79,10.32-23.68,15.48-41.68,15.48C187.71,492.22,173.81,487.05,164.03,476.73z M205.71,401.18
		c-10.66,0-15.99,10.32-15.99,30.95c0,20.64,5.33,30.96,15.99,30.96c10.67,0,15.99-10.32,15.99-30.96
		C221.7,411.5,216.37,401.18,205.71,401.18z"/>
	<linearGradient id="SVGID_4_" gradientUnits="userSpaceOnUse" x1="528.0939" y1="640.4987" x2="531.5778" y2="647.4664">
		<stop  offset="0" style="stop-color:#901B15"/>
		<stop  offset="1" style="stop-color:#830001"/>
	</linearGradient>
	<path class="st3" d="M277.14,333.98h40.36l26.85,98.84l27.88-98.84h34.89l27.88,98.84l26.85-98.84h40.37L453.6,490.61h-36.84
		l-27.08-89.67l-27.08,89.67h-36.84L277.14,333.98z"/>
	<linearGradient id="SVGID_5_" gradientUnits="userSpaceOnUse" x1="639.1771" y1="584.957" x2="642.661" y2="591.9248">
		<stop  offset="0" style="stop-color:#901B15"/>
		<stop  offset="1" style="stop-color:#830001"/>
	</linearGradient>
	<path class="st4" d="M532.67,490.61V333.98h40.36v156.63H532.67z"/>
	<linearGradient id="SVGID_6_" gradientUnits="userSpaceOnUse" x1="746.6771" y1="531.207" x2="750.161" y2="538.1748">
		<stop  offset="0" style="stop-color:#901B15"/>
		<stop  offset="1" style="stop-color:#830001"/>
	</linearGradient>
	<path class="st5" d="M615.04,490.61V333.98h40.36l63.64,93.91v-93.91h40.36v156.63h-39.78l-64.22-93.23v93.23H615.04z"/>
</g>
<g>
	<g>
		<g>
			<g>
				<polygon class="st6" points="-2954.13,-427.19 -2953.91,-371.66 -2936.16,-371.66 -2936.38,-427.19 				"/>
				<path class="st6" d="M-2884.16-384.33c4.21,0,7.81-0.68,10.71-2.02c2.87-1.33,5.28-3.16,7.18-5.45c1.5-1.84,2.68-3.91,3.52-6.15
					c0.84-2.27,1.26-4.68,1.25-7.15c-0.01-2.84-0.59-5.63-1.73-8.28c-1.15-2.68-2.76-5.07-4.79-7.09c-2-1.98-4.43-3.57-7.24-4.7
					c-2.74-1.09-6.12-1.66-10.05-1.66h-34.38c-3.08,0-4.77,1.62-4.76,4.58l0.2,50.96h17.67l-0.05-13.04H-2884.16z M-2906.73-409.43
					h22.78c1.49,0,2.34,0.23,2.79,0.43c0.54,0.23,0.95,0.52,1.21,0.86c0.57,0.74,0.84,1.57,0.84,2.63c0,1.09-0.3,2-0.97,2.88
					c-0.43,0.58-1.02,1.06-1.76,1.4c-0.74,0.35-1.78,0.52-3.06,0.52h-21.8L-2906.73-409.43z"/>
			</g>
			<g>
				<path class="st7" d="M-2651.13-402.7c0.97-2,1.47-4.27,1.45-6.74c-0.01-2.43-0.43-4.65-1.26-6.61
					c-0.83-1.96-1.96-3.72-3.34-5.22c-3.53-3.81-8.41-5.74-14.51-5.74h-37.07c-3.13,0-4.85,1.62-4.83,4.57l0.18,45.37
					c0.01,2.07,0.88,3.35,1.61,4.05c0.74,0.7,2.07,1.55,4.25,1.55h37.84c3.28,0,6.09-0.51,8.34-1.51c2.24-1,4.11-2.38,5.54-4.1
					c1.21-1.43,2.16-3.05,2.84-4.8c0.7-1.8,1.04-3.73,1.04-5.75c-0.01-2.66-0.57-5.19-1.65-7.51c-0.6-1.29-1.4-2.45-2.35-3.44
					l-0.61-0.63l0.45-0.49C-2652.37-400.58-2651.68-401.59-2651.13-402.7z M-2667.64-391.7c0.14,0.27,0.2,0.55,0.21,0.89
					c0,0.72-0.24,1.4-0.73,1.99c-0.31,0.34-0.69,0.61-1.15,0.81c-0.45,0.2-1.07,0.3-1.86,0.3h-21.72l-0.02-5.1h22.7
					c0.88,0,1.35,0.11,1.56,0.18l0.29,0.13l-0.23,0.66l0.59-0.39c0.08,0.09,0.15,0.18,0.21,0.27l0.16,0.2L-2667.64-391.7z
					 M-2667.81-408.54c0,0.6-0.2,1.13-0.63,1.68c-0.29,0.37-0.64,0.65-1.05,0.85c-0.38,0.18-0.94,0.27-1.67,0.27h-21.79l-0.02-4.57
					h22.78c0.42,0,0.79,0.04,1.08,0.1h0.11l0.21,0.09c0.18,0.09,0.32,0.18,0.45,0.28l0.28,0.32
					C-2667.89-409.23-2667.81-408.92-2667.81-408.54z"/>
				<polygon class="st7" points="-2642.97,-427 -2642.75,-371.47 -2625,-371.47 -2625.22,-427 				"/>
				<path class="st7" d="M-2556.08-388.4h-9.77h-24.7l25.26-18.88c1.27-0.94,2.15-1.72,2.71-2.39c0.55-0.68,0.99-1.38,1.27-2.09
					c0.64-1.46,0.96-2.97,0.95-4.5c0-1.2-0.27-2.45-0.78-3.68c-0.52-1.27-1.29-2.45-2.27-3.49c-1.02-1.08-2.3-1.97-3.81-2.62
					c-1.48-0.64-3.28-0.95-5.54-0.95h-46.14l0.07,17.39h30.55l-24.49,17.25c-1.05,0.74-1.82,1.3-2.33,1.67
					c-0.58,0.44-1.09,0.91-1.51,1.4c-0.84,1.01-1.48,2.1-1.88,3.19c-0.41,1.13-0.62,2.25-0.6,3.35c0,2.47,0.82,4.78,2.4,6.86
					c1.04,1.37,2.4,2.47,4.07,3.27c1.61,0.77,3.55,1.15,5.93,1.15h45.51h8.62h40.04l-4.64-16.93H-2556.08z"/>
			</g>
		</g>
		<path class="st7" d="M-2708.06-464.79h94.68c36.15,0,65.55,29.41,65.55,65.55s-29.4,65.55-65.55,65.55h-113.72
			c-36.14,0-65.55-29.41-65.55-65.55c0-12.24-9.92-22.17-22.17-22.17c-12.24,0-22.17,9.93-22.17,22.17
			c0,60.59,49.3,109.9,109.9,109.9h113.72c60.6,0,109.9-49.3,109.9-109.9c0-60.59-49.3-109.9-109.9-109.9h-135.65
			C-2731.06-498.15-2718.82-482.89-2708.06-464.79z"/>
		<path class="st6" d="M-2848.81-333.69h-86.03c-36.14,0-65.54-29.41-65.54-65.55c0-36.15,29.4-65.55,65.54-65.55h105.06
			c36.14,0,65.55,29.4,65.55,65.55c0,12.24,9.93,22.17,22.17,22.17c12.25,0,22.17-9.93,22.17-22.17c0-60.59-49.3-109.9-109.9-109.9
			h-105.06c-60.59,0-109.89,49.3-109.89,109.9c0,60.59,49.3,109.9,109.89,109.9h126.99
			C-2825.81-300.33-2838.05-315.59-2848.81-333.69z"/>
	</g>
	<g>
		<g>
			<path class="st8" d="M-2349.07-499.32h4.96v31.53h-4.96V-499.32z"/>
			<path class="st8" d="M-2333.69-499.32h9.55c7.03,0,12.04,2.4,12.04,9.51c0,6.89-5.01,10.07-11.87,10.07h-4.76v11.95h-4.97
				V-499.32z M-2324.44-483.73c5.05,0,7.45-1.92,7.45-6.08c0-4.16-2.61-5.53-7.62-5.53h-4.12v11.61H-2324.44z"/>
			<path class="st8" d="M-2292.1-476.44c3.3-0.13,6.6-0.39,9.68-0.82l0.39,3.26c-8.1,1.41-16.97,1.45-23.61,1.45l-0.6-3.64
				c2.91,0,6.25,0,9.72-0.09v-6.08c-4.79-0.86-8.18-4.37-8.18-9.12c0-5.49,4.41-9.3,10.37-9.3c5.95,0,10.32,3.81,10.32,9.3
				c0,4.75-3.3,8.22-8.09,9.08V-476.44z M-2294.33-485.99c3.51,0,6.04-2.1,6.04-5.48c0-3.39-2.53-5.53-6.04-5.53
				s-6.08,2.15-6.08,5.53C-2300.41-488.1-2297.84-485.99-2294.33-485.99z M-2270.04-483.9h-5.7v19.37h-4.42v-38.65h4.42v15.59h5.7
				V-483.9z"/>
			<path class="st8" d="M-2250.51-499.32h9.77c6.47,0,11.13,2.06,11.13,7.75c0,3-1.66,5.87-4.5,6.82v0.21
				c3.6,0.77,6.21,3.21,6.21,7.5c0,6.25-5.1,9.25-12.08,9.25h-10.54V-499.32z M-2241.3-486.17c4.8,0,6.81-1.8,6.81-4.76
				c0-3.3-2.23-4.54-6.68-4.54h-4.38v9.3H-2241.3z M-2240.53-471.69c4.93,0,7.75-1.75,7.75-5.61c0-3.56-2.74-5.1-7.75-5.1h-5.02
				v10.71H-2240.53z"/>
			<path class="st8" d="M-2219.8-499.32h4.97v31.53h-4.97V-499.32z"/>
			<path class="st8" d="M-2206.57-470.79l15.81-24.38h-14.35v-4.16h20.47v2.95l-15.76,24.38h15.94v4.2h-22.11V-470.79z"/>
			<path class="st8" d="M-2164.71-493.62c0,6.9,3.6,13.88,9.43,16.75l-2.7,3.51c-4.15-2.14-7.24-6.33-8.91-11.39
				c-1.67,5.36-4.93,9.85-9.34,12.13l-2.7-3.56c6.04-2.96,9.81-10.28,9.81-17.44v-6.34h4.41V-493.62z M-2142.26-484.2h-6.04v19.71
				h-4.41v-38.69h4.41v15.34h6.04V-484.2z"/>
			<path class="st8" d="M-2115.49-486.72c0,8.4-4.2,13.67-9.98,13.67c-5.74,0-9.94-5.27-9.94-13.67c0-8.31,4.2-13.63,9.94-13.63
				C-2119.69-500.35-2115.49-495.03-2115.49-486.72z M-2131.17-486.72c0,6.08,2.36,9.73,5.7,9.73c3.39,0,5.74-3.65,5.74-9.73
				c0-6-2.36-9.64-5.74-9.64C-2128.82-496.37-2131.17-492.72-2131.17-486.72z M-2104.87-503.22v38.82h-4.46v-38.82H-2104.87z"/>
			<path class="st8" d="M-2083.54-481.71h11.31v3.64h-11.31V-481.71z"/>
			<path class="st8" d="M-2047.73-500.01v9.85h9.81v-9.85h4.41v26.39h-18.59v-26.39H-2047.73z M-2047.73-477.17h9.81v-9.47h-9.81
				V-477.17z M-2022.33-503.22v38.82h-4.46v-38.82H-2022.33z"/>
			<path class="st8" d="M-1977.61-476.36h-15.34v11.96h-4.41v-11.96h-15.34v-3.59h35.09V-476.36z M-1981.38-483.43h-26.78v-18.08
				h26.35v3.51h-21.93v3.73h21.04v3.42h-21.04v3.9h22.36V-483.43z"/>
			<path class="st8" d="M-1960-481.24c-3.73,0.13-7.29,0.18-10.41,0.18l-0.56-3.6c7.11,0,16.62-0.05,24.8-1.16l0.3,3.13
				c-3.22,0.6-6.47,0.98-9.72,1.15v6.51h-4.41V-481.24z M-1968.19-494.44c0-4.37,3.99-7.2,9.81-7.2c5.78,0,9.77,2.83,9.77,7.2
				c0,4.42-3.98,7.28-9.77,7.28C-1964.2-487.15-1968.19-490.02-1968.19-494.44z M-1938.29-468.82v3.6h-27.59v-11.14h4.41v7.54
				H-1938.29z M-1963.99-494.44c0,2.44,2.23,3.94,5.61,3.94c3.34,0,5.61-1.5,5.61-3.94c0-2.4-2.27-3.89-5.61-3.89
				C-1961.77-498.33-1963.99-496.84-1963.99-494.44z M-1939.27-473.79h-4.46v-29.38h4.46V-473.79z"/>
			<path class="st8" d="M-1897.25-477.9c1.8-0.17,3.6-0.34,5.31-0.56l0.26,3.25c-8.01,1.33-16.97,1.46-23.7,1.46l-0.47-3.64
				c1.45,0,3.08,0,4.76,0v-18.34h-3.77v-3.56h21.38v3.56h-3.77V-477.9z M-1906.81-477.47c1.71-0.04,3.51-0.13,5.27-0.22v-18.03
				h-5.27V-477.47z M-1879.39-484.41h-6.04v19.96h-4.42v-38.72h4.42v15.13h6.04V-484.41z"/>
			<path class="st8" d="M-1838.74-472.84v3.6h-35.09v-3.6H-1838.74z M-1842.68-479.19h-26.82v-20.86h26.52v3.55H-1865v4.97h21.17
				v3.47H-1865v5.31h22.32V-479.19z"/>
			<path class="st8" d="M-1825.85-477.34c5.35-0.04,10.54-0.47,15.98-1.54l0.51,3.64c-6.16,1.2-11.82,1.58-17.78,1.58h-3.09v-25.27
				h4.38V-477.34z M-1800.14-503.17v38.77h-4.41v-22.75h-11.23v-3.59h11.23v-12.42H-1800.14z"/>
			<path class="st8" d="M-1755.68-473.1v3.64h-35.05v-3.64H-1755.68z M-1759.11-480.64c-6.29-1.28-11.74-5.31-14.26-10.62
				c-2.53,5.31-7.97,9.34-14.27,10.62l-1.88-3.64c7.63-1.42,13.84-7.37,13.84-13.5v-2.91h4.67v2.91c0,6.17,6.21,12.13,13.84,13.5
				L-1759.11-480.64z"/>
		</g>
		<g>
			<path class="st7" d="M-2456.25-296.57l0-128.12l43.85,0c34.17,0,51.25,11.96,51.25,35.89c0,4.12-0.7,7.75-2.09,10.87
				c-1.4,3.13-3.32,5.61-5.78,7.45c-2.46,1.84-4.56,3.19-6.27,4.03c-1.72,0.85-3.71,1.64-5.98,2.39c17.6,4.91,26.4,15.66,26.4,32.26
				c0,23.48-17.89,35.23-53.67,35.23L-2456.25-296.57z M-2423.23-374.6l16.97,0c3.06,0,5.85-0.97,8.35-2.9
				c2.5-1.93,3.76-4.55,3.76-7.85c0-4.36-1.45-7.52-4.32-9.48c-2.88-1.97-6.13-2.95-9.75-2.95h-15.01L-2423.23-374.6z
				 M-2423.23-323.49l18.85,0c0.25,0,0.47,0,0.66,0c4.31,0.06,8-1.04,11.06-3.3c3.19-2.39,4.79-5.99,4.79-10.77
				c0-4.78-1.78-8.27-5.35-10.48c-3.57-2.2-7.47-3.3-11.73-3.3l-18.29,0V-323.49z"/>
			<path class="st7" d="M-2339.99-369.92v-22.51h13.13l0-28.04l33.02,0v28.04l20.06,0v22.51l-20.06,0v46.26
				c0,1.43,0.58,2.65,1.74,3.65c1.16,0.99,2.56,1.49,4.2,1.49c3.96,0,8.67-1.59,14.13-4.76v23.47c-5.5,3.04-11.9,4.56-19.23,4.56
				c-11.12,0-19.55-2.92-25.27-8.77c-5.71-5.85-8.58-14.06-8.58-24.64v-41.25L-2339.99-369.92z"/>
			<path class="st7" d="M-2242.69-307.92c-8-8.44-12.01-20.6-12.01-36.48c0-15.88,4.01-28.04,12.01-36.48
				c8-8.45,19.37-12.66,34.09-12.66c14.73,0,26.09,4.21,34.1,12.66c8,8.44,12.01,20.6,12.01,36.48c0,15.89-4.01,28.05-12.01,36.48
				c-8.01,8.44-19.37,12.67-34.1,12.67C-2223.32-295.26-2234.68-299.48-2242.69-307.92z M-2208.6-369.73
				c-8.72,0-13.08,8.44-13.08,25.32c0,16.88,4.36,25.32,13.08,25.32c8.73,0,13.08-8.44,13.08-25.32
				C-2195.52-361.29-2199.87-369.73-2208.6-369.73z"/>
			<path class="st7" d="M-2150.16-424.69l33.01,0l21.96,80.85l22.81-80.85l28.54,0l22.81,80.85l21.96-80.85l33.02,0l-39.77,128.12
				l-30.13,0l-22.15-73.35l-22.15,73.35l-30.13,0L-2150.16-424.69z"/>
			<path class="st7" d="M-1941.15-296.57l0-128.12l33.01,0l0,128.12L-1941.15-296.57z"/>
			<path class="st7" d="M-1873.77-296.57l0-128.12l33.02,0l52.05,76.82l0-76.82l33.01,0l0,128.12l-32.54,0l-52.53-76.26l0,76.26
				L-1873.77-296.57z"/>
		</g>
	</g>
</g>
<g>
	<g>
		<g>
			<polygon class="st6" points="-2625.63,91.15 -2625.37,159.04 -2603.67,159.04 -2603.94,91.15 			"/>
			<path class="st6" d="M-2540.09,143.55c5.16,0,9.55-0.83,13.09-2.47c3.5-1.62,6.45-3.86,8.79-6.66c1.83-2.24,3.28-4.77,4.29-7.52
				c1.03-2.78,1.53-5.72,1.53-8.74c-0.01-3.47-0.72-6.88-2.11-10.13c-1.41-3.27-3.38-6.19-5.86-8.66c-2.44-2.43-5.42-4.36-8.85-5.74
				c-3.35-1.34-7.48-2.02-12.27-2.02h-42.04c-3.77,0-5.83,1.98-5.82,5.59l0.24,62.29h21.61l-0.07-15.95H-2540.09z M-2567.69,112.86
				h27.86c1.81,0,2.86,0.28,3.41,0.52c0.66,0.29,1.15,0.64,1.48,1.05c0.7,0.91,1.03,1.92,1.03,3.22c0,1.32-0.37,2.44-1.19,3.52
				c-0.52,0.72-1.25,1.3-2.15,1.71c-0.91,0.42-2.17,0.64-3.75,0.64h-26.65L-2567.69,112.86z"/>
		</g>
		<g>
			<path class="st7" d="M-2255.21,121.1c1.2-2.45,1.79-5.21,1.78-8.24c-0.01-2.97-0.52-5.69-1.53-8.08
				c-1.02-2.41-2.4-4.55-4.08-6.38c-4.31-4.66-10.28-7.01-17.74-7.01h-45.33c-3.83,0-5.92,1.99-5.91,5.59l0.22,55.46
				c0.01,2.54,1.08,4.1,1.98,4.96c0.89,0.86,2.53,1.89,5.19,1.89h46.26c4.02,0,7.45-0.62,10.21-1.84c2.73-1.22,5.01-2.91,6.76-5.01
				c1.48-1.75,2.64-3.72,3.48-5.87c0.85-2.2,1.27-4.56,1.26-7.03c-0.01-3.26-0.69-6.34-2.01-9.17c-0.74-1.58-1.71-3-2.87-4.2
				l-0.74-0.77l0.55-0.6C-2256.72,123.69-2255.88,122.46-2255.21,121.1z M-2275.38,134.54c0.17,0.34,0.24,0.68,0.25,1.09
				c0,0.89-0.3,1.7-0.89,2.43c-0.37,0.42-0.84,0.75-1.41,1c-0.54,0.24-1.31,0.36-2.26,0.36h-26.55l-0.03-6.24h27.76
				c1.08,0,1.65,0.14,1.89,0.23l0.36,0.16l-0.28,0.81l0.72-0.47c0.1,0.11,0.18,0.22,0.26,0.33l0.2,0.25L-2275.38,134.54z
				 M-2275.59,113.95c0,0.74-0.24,1.39-0.77,2.05c-0.36,0.44-0.79,0.79-1.3,1.03c-0.46,0.22-1.14,0.33-2.03,0.33h-26.64l-0.03-5.58
				h27.85c0.51,0,0.97,0.05,1.31,0.12h0.14l0.25,0.12c0.22,0.11,0.4,0.21,0.55,0.35l0.34,0.39
				C-2275.7,113.11-2275.6,113.49-2275.59,113.95z"/>
			<polygon class="st7" points="-2245.23,91.38 -2244.96,159.27 -2223.26,159.27 -2223.53,91.38 			"/>
			<path class="st7" d="M-2139,138.58h-11.94h-30.21l30.88-23.09c1.56-1.15,2.64-2.11,3.32-2.92c0.67-0.83,1.2-1.69,1.56-2.56
				c0.78-1.78,1.17-3.63,1.16-5.5c-0.01-1.47-0.33-2.99-0.95-4.5c-0.65-1.55-1.58-2.99-2.78-4.26c-1.25-1.33-2.81-2.4-4.66-3.2
				c-1.81-0.79-4.02-1.17-6.77-1.17h-56.41l0.08,21.26h37.34l-29.94,21.09c-1.29,0.91-2.23,1.58-2.85,2.05
				c-0.7,0.54-1.33,1.11-1.85,1.71c-1.03,1.24-1.81,2.56-2.3,3.91c-0.51,1.38-0.76,2.76-0.75,4.09c0.01,3.02,1,5.85,2.93,8.39
				c1.27,1.69,2.93,3.03,4.98,4c1.97,0.95,4.34,1.4,7.25,1.4h55.64h10.53h48.96l-5.68-20.69H-2139z"/>
		</g>
	</g>
	<path class="st7" d="M-2324.81,45.19h115.76c44.18,0,80.13,35.95,80.13,80.13c0,44.19-35.95,80.14-80.13,80.14h-139.03
		c-44.19,0-80.13-35.95-80.13-80.14c0-14.97-12.14-27.1-27.11-27.1c-14.98,0-27.11,12.14-27.11,27.1
		c0,74.08,60.27,134.35,134.36,134.35h139.03c74.07,0,134.34-60.27,134.34-134.35c0-74.08-60.26-134.35-134.34-134.35h-165.83
		C-2352.93,4.4-2337.97,23.05-2324.81,45.19z"/>
	<path class="st6" d="M-2496.87,205.46h-105.17c-44.19,0-80.13-35.95-80.13-80.14c0-44.19,35.94-80.13,80.13-80.13h128.44
		c44.19,0,80.13,35.95,80.13,80.13c0,14.97,12.13,27.11,27.11,27.11c14.97,0,27.11-12.14,27.11-27.11
		c0-74.08-60.27-134.35-134.35-134.35h-128.44c-74.08,0-134.35,60.27-134.35,134.35c0,74.08,60.27,134.35,134.35,134.35h155.24
		C-2468.75,246.25-2483.72,227.6-2496.87,205.46z"/>
</g>
<g>
	<path class="st8" d="M-2768.27,546.67h6.07v38.55h-6.07V546.67z"/>
	<path class="st8" d="M-2749.46,546.67h11.68c8.59,0,14.72,2.93,14.72,11.63c0,8.43-6.13,12.31-14.52,12.31h-5.81v14.61h-6.07
		V546.67z M-2738.15,565.74c6.18,0,9.11-2.35,9.11-7.43c0-5.09-3.2-6.76-9.32-6.76h-5.03v14.19H-2738.15z"/>
	<path class="st8" d="M-2698.61,574.65c4.03-0.15,8.06-0.47,11.83-1l0.47,3.98c-9.91,1.73-20.75,1.78-28.87,1.78l-0.72-4.45
		c3.56,0,7.64,0,11.88-0.1v-7.44c-5.86-1.05-10-5.34-10-11.16c0-6.7,5.39-11.37,12.68-11.37c7.27,0,12.62,4.66,12.62,11.37
		c0,5.82-4.04,10.05-9.9,11.1V574.65z M-2701.34,562.97c4.29,0,7.38-2.57,7.38-6.7c0-4.14-3.08-6.76-7.38-6.76
		c-4.3,0-7.44,2.62-7.44,6.76C-2708.77,560.4-2705.63,562.97-2701.34,562.97z M-2671.64,565.53h-6.97v23.68h-5.4v-47.25h5.4v19.06
		h6.97V565.53z"/>
	<path class="st8" d="M-2647.77,546.67h11.95c7.9,0,13.61,2.52,13.61,9.48c0,3.67-2.05,7.18-5.5,8.33v0.26
		c4.4,0.94,7.59,3.93,7.59,9.17c0,7.64-6.24,11.32-14.77,11.32h-12.88V546.67z M-2636.52,562.75c5.87,0,8.33-2.2,8.33-5.81
		c0-4.03-2.72-5.55-8.17-5.55h-5.35v11.36H-2636.52z M-2635.57,580.46c6.03,0,9.48-2.15,9.48-6.86c0-4.35-3.35-6.24-9.48-6.24h-6.13
		v13.09H-2635.57z"/>
	<path class="st8" d="M-2610.23,546.67h6.08v38.55h-6.08V546.67z"/>
	<path class="st8" d="M-2594.05,581.56l19.33-29.8h-17.54v-5.08h25.03v3.61l-19.27,29.8h19.48v5.14h-27.03V581.56z"/>
	<path class="st8" d="M-2542.88,553.65c0,8.43,4.4,16.97,11.52,20.47l-3.3,4.3c-5.08-2.62-8.86-7.75-10.9-13.93
		c-2.04,6.55-6.02,12.04-11.42,14.82l-3.29-4.35c7.38-3.61,11.99-12.57,11.99-21.31v-7.75h5.39V553.65z M-2515.44,565.17h-7.38
		v24.09h-5.39v-47.29h5.39v18.76h7.38V565.17z"/>
	<path class="st8" d="M-2482.71,562.08c0,10.26-5.13,16.7-12.21,16.7c-7.01,0-12.14-6.44-12.14-16.7c0-10.16,5.13-16.66,12.14-16.66
		C-2487.84,545.42-2482.71,551.92-2482.71,562.08z M-2501.88,562.08c0,7.43,2.88,11.88,6.96,11.88c4.14,0,7.02-4.45,7.02-11.88
		c0-7.34-2.88-11.79-7.02-11.79C-2499,550.29-2501.88,554.74-2501.88,562.08z M-2469.72,541.91v47.45h-5.45v-47.45H-2469.72z"/>
	<path class="st8" d="M-2443.65,568.2h13.83v4.45h-13.83V568.2z"/>
	<path class="st8" d="M-2399.87,545.84v12.05h12v-12.05h5.4v32.26h-22.74v-32.26H-2399.87z M-2399.87,573.75h12v-11.57h-12V573.75z
		 M-2368.81,541.91v47.45h-5.44v-47.45H-2368.81z"/>
	<path class="st8" d="M-2314.14,574.75h-18.76v14.61h-5.38v-14.61h-18.75v-4.39h42.89V574.75z M-2318.75,566.11h-32.74v-22.1h32.21
		v4.3h-26.81v4.55h25.72v4.19h-25.72v4.76h27.34V566.11z"/>
	<path class="st8" d="M-2292.62,568.78c-4.56,0.15-8.9,0.21-12.73,0.21l-0.68-4.4c8.7,0,20.32-0.05,30.33-1.41l0.36,3.83
		c-3.93,0.73-7.91,1.2-11.89,1.41v7.96h-5.39V568.78z M-2302.62,552.65c0-5.35,4.87-8.8,11.99-8.8c7.07,0,11.94,3.46,11.94,8.8
		c0,5.39-4.87,8.9-11.94,8.9C-2297.75,561.55-2302.62,558.04-2302.62,552.65z M-2266.07,583.97v4.4h-33.73v-13.62h5.4v9.22H-2266.07
		z M-2297.49,552.65c0,2.99,2.72,4.82,6.86,4.82c4.08,0,6.86-1.83,6.86-4.82c0-2.94-2.78-4.76-6.86-4.76
		C-2294.77,547.89-2297.49,549.71-2297.49,552.65z M-2267.27,577.89h-5.45v-35.93h5.45V577.89z"/>
	<path class="st8" d="M-2215.9,572.86c2.19-0.21,4.4-0.42,6.49-0.68l0.32,3.99c-9.8,1.63-20.74,1.78-28.96,1.78l-0.58-4.45
		c1.78,0,3.77,0,5.82,0v-22.42h-4.61v-4.35h26.13v4.35h-4.6V572.86z M-2227.58,573.39c2.09-0.05,4.29-0.16,6.44-0.26v-22.05h-6.44
		V573.39z M-2194.07,564.91h-7.38v24.4h-5.39v-47.34h5.39v18.49h7.38V564.91z"/>
	<path class="st8" d="M-2144.37,579.05v4.39h-42.89v-4.39H-2144.37z M-2149.19,571.29h-32.79v-25.5h32.42v4.34h-26.93v6.08h25.88
		v4.24h-25.88v6.49h27.29V571.29z"/>
	<path class="st8" d="M-2128.61,573.55c6.55-0.05,12.88-0.58,19.54-1.89l0.62,4.46c-7.54,1.46-14.45,1.93-21.73,1.93h-3.78v-30.9
		h5.35V573.55z M-2097.18,541.96v47.4h-5.4v-27.81h-13.72v-4.4h13.72v-15.19H-2097.18z"/>
	<path class="st8" d="M-2042.83,578.73v4.46h-42.83v-4.46H-2042.83z M-2047.02,569.51c-7.7-1.57-14.35-6.5-17.44-12.99
		c-3.09,6.49-9.74,11.42-17.45,12.99l-2.3-4.45c9.32-1.73,16.92-9.01,16.92-16.5v-3.56h5.71v3.56c0,7.54,7.59,14.83,16.92,16.5
		L-2047.02,569.51z"/>
</g>
<g>
	<path class="st7" d="M-2833.78,482.1V325.47l53.61,0c41.77,0,62.66,14.63,62.66,43.88c0,5.03-0.85,9.47-2.55,13.29
		c-1.71,3.82-4.06,6.86-7.07,9.11c-3.01,2.25-5.57,3.9-7.66,4.92c-2.1,1.03-4.54,2.01-7.32,2.92c21.52,6,32.28,19.15,32.28,39.44
		c0,28.71-21.87,43.07-65.62,43.07H-2833.78z M-2793.42,386.7h20.75c3.75,0,7.15-1.18,10.2-3.55c3.06-2.36,4.6-5.56,4.6-9.59
		c0-5.33-1.77-9.19-5.28-11.58c-3.52-2.4-7.49-3.6-11.92-3.6h-18.35V386.7z M-2793.42,449.19h23.05c0.31,0,0.58,0,0.81,0
		c5.27,0.08,9.78-1.27,13.52-4.04c3.9-2.93,5.85-7.32,5.85-13.16c0-5.85-2.18-10.12-6.53-12.82c-4.36-2.69-9.14-4.04-14.34-4.04
		h-22.36V449.19z"/>
	<path class="st7" d="M-2691.65,392.43v-27.52h16.05v-34.28l40.36,0v34.28h24.53v27.52h-24.53v56.55c0,1.75,0.71,3.24,2.13,4.46
		c1.42,1.21,3.13,1.83,5.13,1.83c4.84,0,10.6-1.94,17.27-5.82v28.69c-6.72,3.71-14.55,5.57-23.51,5.57c-13.6,0-23.9-3.57-30.9-10.72
		c-6.99-7.15-10.48-17.19-10.48-30.12v-50.43H-2691.65z"/>
	<path class="st7" d="M-2572.69,468.22c-9.78-10.31-14.68-25.18-14.68-44.6c0-19.41,4.9-34.28,14.68-44.6
		c9.78-10.33,23.68-15.48,41.68-15.48c18.01,0,31.9,5.15,41.68,15.48c9.78,10.32,14.68,25.18,14.68,44.6
		c0,19.42-4.9,34.29-14.68,44.6c-9.79,10.32-23.68,15.48-41.68,15.48C-2549.01,483.7-2562.91,478.54-2572.69,468.22z
		 M-2531.02,392.66c-10.66,0-15.99,10.32-15.99,30.95c0,20.64,5.33,30.96,15.99,30.96c10.67,0,15.99-10.32,15.99-30.96
		C-2515.03,402.98-2520.35,392.66-2531.02,392.66z"/>
	<path class="st7" d="M-2459.58,325.47h40.36l26.85,98.84l27.88-98.84h34.89l27.88,98.84l26.85-98.84h40.37l-48.63,156.63h-36.84
		l-27.08-89.67l-27.08,89.67h-36.84L-2459.58,325.47z"/>
	<path class="st7" d="M-2204.06,482.1V325.47h40.36V482.1H-2204.06z"/>
	<path class="st7" d="M-2121.68,482.1V325.47h40.36l63.64,93.91v-93.91h40.36V482.1h-39.78l-64.22-93.23v93.23H-2121.68z"/>
</g>
<g>
	<linearGradient id="SVGID_7_" gradientUnits="userSpaceOnUse" x1="300.8339" y1="318.171" x2="-11.5532" y2="-2.3451">
		<stop  offset="0" style="stop-color:#404040"/>
		<stop  offset="0.5838" style="stop-color:#333333"/>
	</linearGradient>
	<polygon class="st9" points="110.76,100.46 111.02,168.36 132.72,168.36 132.45,100.46 	"/>
	<linearGradient id="SVGID_8_" gradientUnits="userSpaceOnUse" x1="329.3932" y1="290.3361" x2="17.0061" y2="-30.1801">
		<stop  offset="0" style="stop-color:#404040"/>
		<stop  offset="0.5838" style="stop-color:#333333"/>
	</linearGradient>
	<path class="st10" d="M196.3,152.87c5.16,0,9.55-0.83,13.09-2.47c3.5-1.62,6.45-3.86,8.79-6.66c1.83-2.24,3.28-4.77,4.29-7.52
		c1.03-2.78,1.53-5.72,1.53-8.74c-0.01-3.47-0.72-6.88-2.11-10.13c-1.41-3.27-3.38-6.19-5.86-8.66c-2.44-2.43-5.42-4.36-8.85-5.74
		c-3.35-1.34-7.48-2.02-12.27-2.02h-42.04c-3.77,0-5.83,1.98-5.82,5.59l0.24,62.29h21.61l-0.07-15.95H196.3z M168.7,122.18h27.86
		c1.81,0,2.86,0.28,3.41,0.52c0.66,0.29,1.15,0.64,1.48,1.05c0.7,0.91,1.03,1.92,1.03,3.22c0,1.32-0.37,2.44-1.19,3.52
		c-0.52,0.72-1.25,1.3-2.15,1.71c-0.91,0.42-2.17,0.64-3.75,0.64h-26.65L168.7,122.18z"/>
</g>
<g>
	<linearGradient id="SVGID_9_" gradientUnits="userSpaceOnUse" x1="408.3618" y1="134.6414" x2="483.7165" y2="134.6414">
		<stop  offset="0" style="stop-color:#FFFFFF"/>
		<stop  offset="0" style="stop-color:#9B3A3B"/>
		<stop  offset="1" style="stop-color:#830001"/>
	</linearGradient>
	<path class="st11" d="M481.17,130.41c1.2-2.45,1.79-5.21,1.78-8.24c-0.01-2.97-0.52-5.69-1.53-8.08c-1.02-2.41-2.4-4.55-4.08-6.38
		c-4.31-4.66-10.28-7.01-17.74-7.01h-45.33c-3.83,0-5.92,1.99-5.91,5.59l0.22,55.46c0.01,2.54,1.08,4.1,1.98,4.96
		c0.89,0.86,2.53,1.89,5.19,1.89H462c4.02,0,7.45-0.62,10.21-1.84c2.73-1.22,5.01-2.91,6.76-5.01c1.48-1.75,2.64-3.72,3.48-5.87
		c0.85-2.2,1.27-4.56,1.26-7.03c-0.01-3.26-0.69-6.34-2.01-9.17c-0.74-1.58-1.71-3-2.87-4.2l-0.74-0.77l0.55-0.6
		C479.66,133.01,480.51,131.77,481.17,130.41z M461,143.85c0.17,0.34,0.24,0.68,0.25,1.09c0,0.89-0.3,1.7-0.89,2.43
		c-0.37,0.42-0.84,0.75-1.41,1c-0.54,0.24-1.31,0.36-2.26,0.36h-26.55l-0.03-6.24h27.76c1.08,0,1.65,0.14,1.89,0.23l0.36,0.16
		l-0.28,0.81l0.72-0.47c0.1,0.11,0.18,0.22,0.26,0.33l0.2,0.25L461,143.85z M460.79,123.26c0,0.74-0.24,1.39-0.77,2.05
		c-0.36,0.44-0.79,0.79-1.3,1.03c-0.46,0.22-1.14,0.33-2.03,0.33h-26.64l-0.03-5.58h27.85c0.51,0,0.97,0.05,1.31,0.12h0.14
		l0.25,0.12c0.22,0.11,0.4,0.21,0.55,0.35l0.34,0.39C460.69,122.43,460.79,122.81,460.79,123.26z"/>
	<linearGradient id="SVGID_10_" gradientUnits="userSpaceOnUse" x1="491.1529" y1="134.6414" x2="513.1216" y2="134.6414">
		<stop  offset="0" style="stop-color:#FFFFFF"/>
		<stop  offset="0" style="stop-color:#9B3A3B"/>
		<stop  offset="1" style="stop-color:#830001"/>
	</linearGradient>
	<polygon class="st12" points="491.15,100.7 491.43,168.59 513.12,168.59 512.86,100.7 	"/>
	<linearGradient id="SVGID_11_" gradientUnits="userSpaceOnUse" x1="520.3129" y1="134.6414" x2="650.6031" y2="134.6414">
		<stop  offset="0" style="stop-color:#FFFFFF"/>
		<stop  offset="0" style="stop-color:#9B3A3B"/>
		<stop  offset="1" style="stop-color:#830001"/>
	</linearGradient>
	<path class="st13" d="M597.39,147.9h-11.94h-30.21l30.88-23.09c1.56-1.15,2.64-2.11,3.32-2.92c0.67-0.83,1.2-1.69,1.56-2.56
		c0.78-1.78,1.17-3.63,1.16-5.5c-0.01-1.47-0.33-2.99-0.95-4.5c-0.65-1.55-1.58-2.99-2.78-4.26c-1.25-1.33-2.81-2.4-4.66-3.2
		c-1.81-0.79-4.02-1.17-6.77-1.17h-56.41l0.08,21.26H558l-29.94,21.09c-1.29,0.91-2.23,1.59-2.85,2.05
		c-0.7,0.54-1.33,1.11-1.85,1.71c-1.03,1.24-1.81,2.56-2.3,3.91c-0.51,1.38-0.76,2.76-0.75,4.09c0.01,3.02,1,5.85,2.93,8.39
		c1.27,1.69,2.93,3.03,4.98,4c1.97,0.95,4.34,1.4,7.25,1.4h55.64h10.53h48.96l-5.68-20.69H597.39z"/>
</g>
<linearGradient id="SVGID_12_" gradientUnits="userSpaceOnUse" x1="253.9507" y1="134.6387" x2="661.6714" y2="134.6387">
	<stop  offset="0" style="stop-color:#FFFFFF"/>
	<stop  offset="0" style="stop-color:#9B3A3B"/>
	<stop  offset="1" style="stop-color:#830001"/>
</linearGradient>
<path class="st14" d="M411.58,54.51h115.76c44.18,0,80.13,35.95,80.13,80.13c0,44.19-35.95,80.14-80.13,80.14H388.31
	c-44.19,0-80.13-35.95-80.13-80.14c0-14.97-12.14-27.1-27.11-27.1c-14.98,0-27.11,12.14-27.11,27.1
	c0,74.08,60.27,134.35,134.36,134.35h139.03c74.07,0,134.34-60.27,134.34-134.35c0-74.08-60.26-134.35-134.34-134.35H361.5
	C383.45,13.72,398.42,32.37,411.58,54.51z"/>
<linearGradient id="SVGID_13_" gradientUnits="userSpaceOnUse" x1="311.6284" y1="210.9053" x2="-80.8878" y2="-53.8688">
	<stop  offset="0.0584" style="stop-color:#4D4D4D"/>
	<stop  offset="0.3553" style="stop-color:#333333"/>
</linearGradient>
<path class="st15" d="M239.52,214.78H134.35c-44.19,0-80.13-35.95-80.13-80.14c0-44.19,35.94-80.13,80.13-80.13h128.44
	c44.19,0,80.13,35.95,80.13,80.13c0,14.97,12.13,27.11,27.11,27.11c14.97,0,27.11-12.14,27.11-27.11
	c0-74.08-60.27-134.35-134.35-134.35H134.35C60.27,0.29,0,60.56,0,134.64c0,74.08,60.27,134.35,134.35,134.35h155.24
	C267.63,255.56,252.66,236.91,239.52,214.78z"/>
<g>
	<path class="st6" d="M-31.88,555.99h6.07v38.55h-6.07V555.99z"/>
	<path class="st6" d="M-13.08,555.99H-1.4c8.59,0,14.72,2.93,14.72,11.63c0,8.43-6.13,12.31-14.52,12.31H-7v14.61h-6.07V555.99z
		 M-1.77,575.06c6.18,0,9.11-2.35,9.11-7.43c0-5.09-3.2-6.76-9.32-6.76H-7v14.19H-1.77z"/>
	<path class="st6" d="M37.77,583.96c4.03-0.15,8.06-0.47,11.83-1l0.47,3.98c-9.91,1.73-20.75,1.78-28.87,1.78l-0.72-4.45
		c3.56,0,7.64,0,11.88-0.1v-7.44c-5.86-1.05-10-5.34-10-11.16c0-6.7,5.39-11.37,12.68-11.37c7.27,0,12.62,4.66,12.62,11.37
		c0,5.82-4.04,10.05-9.9,11.1V583.96z M35.05,572.28c4.29,0,7.38-2.57,7.38-6.7c0-4.14-3.08-6.76-7.38-6.76
		c-4.3,0-7.44,2.62-7.44,6.76C27.61,569.72,30.75,572.28,35.05,572.28z M64.74,574.85h-6.97v23.68h-5.4v-47.25h5.4v19.06h6.97
		V574.85z"/>
	<path class="st6" d="M88.61,555.99h11.95c7.9,0,13.61,2.52,13.61,9.48c0,3.67-2.05,7.18-5.5,8.33v0.26
		c4.4,0.94,7.59,3.93,7.59,9.17c0,7.64-6.24,11.32-14.77,11.32H88.61V555.99z M99.87,572.07c5.87,0,8.33-2.2,8.33-5.81
		c0-4.03-2.72-5.55-8.17-5.55h-5.35v11.36H99.87z M100.81,589.78c6.03,0,9.48-2.15,9.48-6.86c0-4.35-3.35-6.24-9.48-6.24h-6.13
		v13.09H100.81z"/>
	<path class="st6" d="M126.16,555.99h6.08v38.55h-6.08V555.99z"/>
	<path class="st6" d="M142.34,590.87l19.33-29.8h-17.54v-5.09h25.03v3.61l-19.27,29.8h19.48v5.14h-27.03V590.87z"/>
	<path class="st6" d="M193.5,562.96c0,8.43,4.4,16.97,11.52,20.47l-3.3,4.3c-5.08-2.62-8.86-7.75-10.9-13.93
		c-2.04,6.55-6.02,12.04-11.42,14.82l-3.29-4.35c7.38-3.61,11.99-12.57,11.99-21.31v-7.75h5.39V562.96z M220.95,574.48h-7.38v24.09
		h-5.39v-47.29h5.39v18.76h7.38V574.48z"/>
	<path class="st6" d="M253.68,571.4c0,10.26-5.13,16.7-12.21,16.7c-7.01,0-12.14-6.44-12.14-16.7c0-10.16,5.13-16.66,12.14-16.66
		C248.54,554.73,253.68,561.23,253.68,571.4z M234.51,571.4c0,7.43,2.88,11.88,6.96,11.88c4.14,0,7.02-4.45,7.02-11.88
		c0-7.34-2.88-11.79-7.02-11.79C237.39,559.61,234.51,564.06,234.51,571.4z M266.67,551.23v47.45h-5.45v-47.45H266.67z"/>
	<path class="st6" d="M292.74,577.52h13.83v4.45h-13.83V577.52z"/>
	<path class="st6" d="M336.52,555.15v12.05h12v-12.05h5.4v32.26h-22.74v-32.26H336.52z M336.52,583.07h12V571.5h-12V583.07z
		 M367.57,551.23v47.45h-5.44v-47.45H367.57z"/>
	<path class="st6" d="M422.24,584.07h-18.76v14.61h-5.38v-14.61h-18.75v-4.39h42.89V584.07z M417.63,575.43H384.9v-22.1h32.21v4.3
		H390.3v4.55h25.72v4.19H390.3v4.76h27.34V575.43z"/>
	<path class="st6" d="M443.77,578.1c-4.56,0.15-8.9,0.21-12.73,0.21l-0.68-4.4c8.7,0,20.32-0.05,30.33-1.41l0.36,3.83
		c-3.93,0.73-7.91,1.2-11.89,1.41v7.96h-5.39V578.1z M433.76,561.97c0-5.35,4.87-8.8,11.99-8.8c7.07,0,11.94,3.46,11.94,8.8
		c0,5.39-4.87,8.9-11.94,8.9C438.64,570.87,433.76,567.36,433.76,561.97z M470.32,593.29v4.4h-33.73v-13.62h5.4v9.22H470.32z
		 M438.9,561.97c0,2.99,2.72,4.82,6.86,4.82c4.08,0,6.86-1.83,6.86-4.82c0-2.94-2.78-4.76-6.86-4.76
		C441.61,557.2,438.9,559.03,438.9,561.97z M469.12,587.21h-5.45v-35.93h5.45V587.21z"/>
	<path class="st6" d="M520.49,582.18c2.19-0.21,4.4-0.42,6.49-0.68l0.32,3.99c-9.8,1.63-20.74,1.78-28.96,1.78l-0.58-4.45
		c1.78,0,3.77,0,5.82,0v-22.42h-4.61v-4.35h26.13v4.35h-4.6V582.18z M508.8,582.7c2.09-0.05,4.29-0.16,6.44-0.26v-22.05h-6.44V582.7
		z M542.32,574.23h-7.38v24.4h-5.39v-47.34h5.39v18.49h7.38V574.23z"/>
	<path class="st6" d="M592.02,588.37v4.39h-42.89v-4.39H592.02z M587.2,580.61h-32.79v-25.5h32.42v4.34h-26.93v6.08h25.88v4.24
		h-25.88v6.49h27.29V580.61z"/>
	<path class="st6" d="M607.77,582.87c6.55-0.05,12.88-0.58,19.54-1.89l0.62,4.46c-7.54,1.46-14.45,1.93-21.73,1.93h-3.78v-30.9h5.35
		V582.87z M639.2,551.28v47.4h-5.4v-27.81h-13.72v-4.4h13.72v-15.19H639.2z"/>
	<path class="st6" d="M693.55,588.04v4.46h-42.83v-4.46H693.55z M689.37,578.83c-7.7-1.57-14.35-6.5-17.44-12.99
		c-3.09,6.49-9.74,11.42-17.45,12.99l-2.3-4.45c9.32-1.73,16.92-9.01,16.92-16.5v-3.56h5.71v3.56c0,7.54,7.59,14.83,16.92,16.5
		L689.37,578.83z"/>
</g>
<text transform="matrix(1 0 0 1 -1315.3032 -289.3435)" style="display:none;fill:#830001; font-family:'AdobeGothicStd-Bold-KSCpc-EUC-H'; font-size:240px;">BtoWIN</text>
</svg>
