<?xml version="1.0" encoding="utf-8"?>
<!-- Generator: Adobe Illustrator 23.0.3, SVG Export Plug-In . SVG Version: 6.00 Build 0)  -->
<svg version="1.1" id="Layer_1" xmlns="http://www.w3.org/2000/svg" xmlns:xlink="http://www.w3.org/1999/xlink" x="0px" y="0px"
	 viewBox="0 0 40 40" style="enable-background:new 0 0 40 40;" xml:space="preserve">
<style type="text/css">
	.st0{fill:#FFFFFF;}
	.st1{fill:#CCCCCC;}
	.st2{fill:#1EC800;}
</style>
<g>
	<path class="st0" d="M40,36.6c0,1.9-1.5,3.4-3.4,3.4H3.4C1.6,40,0,38.4,0,36.6V3.4C0,1.6,1.6,0,3.4,0h33.1C38.5,0,40,1.6,40,3.4
		V36.6z"/>
	<path class="st1" d="M36.6,0.6c1.6,0,2.9,1.3,2.9,2.9v33.1c0,1.6-1.3,2.9-2.9,2.9H3.4c-1.6,0-2.9-1.3-2.9-2.9V3.4
		c0-1.6,1.3-2.9,2.9-2.9H36.6 M36.6,0H3.4C1.6,0,0,1.6,0,3.4v33.1C0,38.4,1.6,40,3.4,40h33.1c1.9,0,3.4-1.6,3.4-3.4V3.4
		C40,1.6,38.4,0,36.6,0L36.6,0z"/>
	<g>
		<g>
			<g>
				<polygon class="st2" points="23,11.3 23,20.1 17,11.3 10.4,11.3 10.4,28.8 17,28.8 17,19.9 23,28.8 29.6,28.8 29.6,11.3 				"/>
			</g>
		</g>
	</g>
</g>
</svg>
